<svg xmlns="http://www.w3.org/2000/svg" viewBox="0 0 800 300">
  <ellipse cx="655" cy="255" fill-opacity=".25" rx="25" ry="10"/>
  <path fill="#41403e" d="M670 175h-30v75c0 3.98 1.58 7.8 4.4 10.6 2.8 2.82 6.62 4.4 10.6 4.4h.02c3.97 0 7.78-1.58 10.6-4.4 2.8-2.8 4.38-6.6 4.38-10.58V175z"/>
  <path fill="#696969" d="M660 175h-10v75.35c0 2.57 2.08 4.65 4.65 4.65h.43c2.72 0 4.92-2.2 4.92-4.92V175z"/>
  <circle cx="655" cy="110" r="75" fill="#dea700"/>
  <circle cx="655" cy="110" r="65" fill="#ffc107"/>
  <path fill-rule="nonzero" d="M681.9 86.7c-.77-2.3-2.94-3.92-5.5-3.92h-9.73V75h-23.34v7.78h-9.72c-2.54 0-4.7 1.63-5.5 3.93L620 110v31.1c0 2.15 1.75 3.9 3.9 3.9h3.88c2.14 0 3.9-1.75 3.9-3.9v-3.88h46.65v3.9c0 2.13 1.75 3.88 3.9 3.88h3.88c2.17 0 3.9-1.75 3.9-3.9V110l-8.1-23.3zm-48.3 38.86c-3.22 0-5.82-2.6-5.82-5.84 0-3.23 2.6-5.83 5.83-5.83 3.26 0 5.86 2.6 5.86 5.8 0 3.23-2.6 5.84-5.83 5.84zm42.8 0c-3.24 0-5.84-2.6-5.84-5.84 0-3.23 2.6-5.83 5.83-5.83 3.2 0 5.8 2.6 5.8 5.8 0 3.23-2.6 5.84-5.83 5.84zm-48.62-19.45l5.83-17.5h42.8l5.84 17.5H627.8z"/>
  <path d="M540 110.02c0-5.3-2.1-10.4-5.86-14.16-3.76-3.75-8.85-5.86-14.16-5.86h-80.02c-5.3 0-10.37 2.1-14.1 5.85-3.76 3.74-5.86 8.82-5.86 14.1v80.12c0 11 8.92 19.93 19.92 19.93h80c5.32 0 10.43-2.12 14.2-5.88 3.76-3.77 5.88-8.88 5.88-14.2V110z"/>
  <path fill="#ffc107" d="M528 112.04c0-2.66-1.06-5.22-2.94-7.1s-4.44-2.94-7.1-2.94H441.9c-2.63 0-5.15 1.04-7 2.9-1.86 1.85-2.9 4.37-2.9 7v76.04c0 2.67 1.06 5.23 2.94 7.12 1.9 1.88 4.45 2.94 7.12 2.94h75.44c2.78 0 5.46-1.1 7.42-3.08 1.97-1.96 3.08-4.63 3.08-7.42v-75.46z"/>
  <path d="M500 140h10v30h-10v10h-10v-10h-20v10h-10v-10h-10v-30h10v-20h40v20zm-30 10h-10v10h10v-10zm30 0h-10v10h10v-10zm-10-20h-20v10h20v-10z"/>
  <path fill-opacity=".5" d="M290 139.9c0-2.63 1.04-5.14 2.9-7 1.86-1.86 4.37-2.9 7-2.9h.1v-9.7c0-5.7 4.6-10.3 10.3-10.3h49.77c5.48 0 9.93 4.45 9.93 9.93V130h.26c5.38 0 9.74 4.36 9.74 9.74V170c0 2.66-1.05 5.2-2.93 7.07-1.87 1.88-4.4 2.93-7.06 2.93v.06c0 5.5-4.43 9.94-9.92 9.94h-10.42c-2.56 0-5-1.02-6.82-2.82-1.8-1.8-2.82-4.26-2.82-6.82V180h-10v.36c0 2.56-1 5-2.8 6.82-1.8 1.8-4.27 2.82-6.83 2.82h-10.6c-5.4 0-9.77-4.37-9.77-9.76V180c-2.65 0-5.2-1.05-7.06-2.93-1.88-1.87-2.93-4.4-2.93-7.06v-30.1z"/>
  <path fill="#ffc107" d="M300 170v-30h10v-20h50v20h10v30h-70z"/>
  <path fill="#fff" d="M310 150h10v10h-10z"/>
  <path fill-opacity=".2" d="M310 140h10v10h-10zm-10 10h10v10h-10zm10 10h10v10h-10zm10-10h10v10h-10zm30-10h10v10h-10zm-10 10h10v10h-10zm10 10h10v10h-10zm10-10h10v10h-10z"/>
  <path fill="#fff" d="M350 150h10v10h-10z"/>
  <path d="M310 170h10v10h-10zm40 0h10v10h-10zm-30-40h30v10h-30z"/>
  <circle cx="100" cy="150" r="30" fill="#bd4636"/>
  <circle cx="100" cy="150" r="20" fill="#e9533e"/>
  <circle cx="210" cy="150" r="40" fill="#3641bd"/>
  <circle cx="210" cy="150" r="30" fill="#3e5ae9"/>
</svg>
