<svg xmlns="http://www.w3.org/2000/svg" fill-rule="evenodd" stroke-linejoin="round" stroke-miterlimit="1.41" clip-rule="evenodd" viewBox="0 0 319 170">
  <path fill="#fff" d="M0 0h319v169.07H0z"/>
  <path fill-rule="nonzero" d="M114.56 35.54H110a7.07 7.07 0 0 0 .72 3.42c.5.96 1.18 1.75 2.03 2.37a8.64 8.64 0 0 0 2.94 1.36c1.1.3 2.25.44 3.43.44 1.46 0 2.75-.17 3.86-.51a8.15 8.15 0 0 0 2.79-1.42 5.93 5.93 0 0 0 1.7-2.18c.37-.84.56-1.75.56-2.73 0-1.2-.25-2.18-.76-2.95a6.39 6.39 0 0 0-1.82-1.85c-.7-.46-1.4-.8-2.11-1a330.42 330.42 0 0 1-4.92-1.27c-.83-.23-1.48-.45-1.95-.67a2.14 2.14 0 0 1-.95-.72c-.16-.26-.24-.6-.24-1.02 0-.46.1-.84.3-1.14.2-.3.46-.55.77-.75.3-.2.65-.34 1.03-.42.38-.08.76-.12 1.14-.12.58 0 1.12.05 1.6.15.5.1.93.27 1.31.51s.69.57.92.99c.23.42.36.95.4 1.59h4.56c0-1.24-.23-2.3-.7-3.16a6.15 6.15 0 0 0-1.9-2.15 8.04 8.04 0 0 0-2.75-1.21c-1.03-.25-2.1-.38-3.23-.38-.96 0-1.92.13-2.88.39s-1.82.66-2.58 1.2a6.39 6.39 0 0 0-1.84 2.03 5.6 5.6 0 0 0-.7 2.86c0 .98.18 1.82.55 2.5a5.3 5.3 0 0 0 1.45 1.73c.6.46 1.28.84 2.04 1.13a56.36 56.36 0 0 0 4.65 1.34c.76.17 1.44.38 2.04.62.6.24 1.09.54 1.46.9.37.36.55.83.55 1.41 0 .54-.14.99-.42 1.34-.28.35-.63.62-1.05.82-.42.2-.87.34-1.35.4a7.16 7.16 0 0 1-3.15-.12 4.48 4.48 0 0 1-1.51-.68 3.4 3.4 0 0 1-1.04-1.22 3.93 3.93 0 0 1-.39-1.83zM134.75 24.74v-3.51h-4.26v3.51h4.26zm-4.26 2.4v15.51h4.26V27.14h-4.26zM138.11 27.14v15.51h4.26v-8.13c0-1.58.26-2.72.78-3.4.52-.7 1.36-1.04 2.52-1.04 1.02 0 1.73.31 2.13.94.4.63.6 1.59.6 2.87v8.76h4.26v-9.54c0-.96-.08-1.84-.25-2.63a5 5 0 0 0-.89-2c-.42-.56-1-.99-1.72-1.3a7.24 7.24 0 0 0-5.45.15 4.89 4.89 0 0 0-2.1 1.97h-.09v-2.16h-4.05zM163.13 38.99a3.02 3.02 0 0 1-2.71-1.5 4.5 4.5 0 0 1-.57-1.49 8.47 8.47 0 0 1-.17-1.66c0-.58.07-1.14.2-1.67.13-.52.34-1 .63-1.4.29-.41.65-.74 1.08-.98.43-.24.94-.36 1.54-.36.7 0 1.28.13 1.74.39.46.26.83.61 1.11 1.05.28.44.48.95.6 1.52.12.57.18 1.17.18 1.81 0 .56-.07 1.1-.22 1.6-.15.52-.38.97-.68 1.37a3.33 3.33 0 0 1-2.73 1.32zm7.68 2.67V27.14h-4.05v2.07h-.06a4.63 4.63 0 0 0-1.93-1.92 6 6 0 0 0-2.69-.57 6.16 6.16 0 0 0-4.95 2.32 7.57 7.57 0 0 0-1.27 2.47c-.3.93-.44 1.89-.44 2.89 0 1.06.13 2.07.38 3.02a7 7 0 0 0 1.18 2.49 5.7 5.7 0 0 0 2.07 1.68c.84.4 1.84.61 3 .61.94 0 1.84-.2 2.69-.58.85-.4 1.5-1 1.96-1.82h.06v2.04a4.23 4.23 0 0 1-.8 2.73c-.54.72-1.42 1.08-2.62 1.08a4.2 4.2 0 0 1-2-.46c-.59-.31-.98-.87-1.18-1.67h-4.23c.06.88.3 1.64.74 2.27a5.3 5.3 0 0 0 1.62 1.54c.65.4 1.37.7 2.16.89.79.19 1.56.28 2.32.28 1.78 0 3.2-.24 4.26-.72a6.52 6.52 0 0 0 2.43-1.75c.56-.7.93-1.44 1.1-2.24.17-.8.25-1.51.25-2.13zM174.35 21.23h4.26v21.42h-4.26zM192.41 33.23h-6.93c.02-.3.09-.64.2-1.02a3.13 3.13 0 0 1 1.65-1.94 3.7 3.7 0 0 1 1.7-.34c1.03 0 1.8.28 2.32.84.5.56.86 1.38 1.06 2.46zm-6.93 2.7h11.2c.07-1.2-.03-2.35-.3-3.45a8.44 8.44 0 0 0-1.37-2.94 6.89 6.89 0 0 0-5.87-2.82 7.62 7.62 0 0 0-7.35 4.95c-.38 1-.57 2.08-.57 3.24 0 1.2.19 2.3.56 3.3a6.86 6.86 0 0 0 4.06 4.24c.98.4 2.08.59 3.3.59 1.76 0 3.26-.4 4.5-1.2 1.24-.8 2.16-2.13 2.76-3.99h-3.75c-.14.48-.52.93-1.14 1.36a3.8 3.8 0 0 1-2.22.65c-1.2 0-2.12-.31-2.76-.93-.64-.62-.99-1.62-1.05-3zM218.54 34.85c0 .64-.06 1.26-.18 1.86-.12.6-.32 1.14-.6 1.6-.28.47-.65.85-1.12 1.13-.47.28-1.06.42-1.76.42-.66 0-1.22-.14-1.7-.43a3.74 3.74 0 0 1-1.16-1.15c-.31-.47-.54-1-.68-1.6a7.9 7.9 0 0 1-.01-3.64 4.9 4.9 0 0 1 .63-1.58c.29-.46.67-.83 1.15-1.11a3.46 3.46 0 0 1 1.77-.42c.7 0 1.28.14 1.74.42.46.28.84.65 1.13 1.1.29.45.5.97.61 1.56.12.59.18 1.2.18 1.84zm.06 5.82v1.98h4.05V21.23h-4.26v7.8h-.06a4.57 4.57 0 0 0-1.96-1.73 6.1 6.1 0 0 0-2.63-.58 6.38 6.38 0 0 0-5.14 2.46c-.57.74-1 1.6-1.3 2.56a11.15 11.15 0 0 0 0 6.13 8.3 8.3 0 0 0 1.3 2.66c.57.77 1.3 1.38 2.17 1.83.88.45 1.9.68 3.06.68 1.02 0 1.94-.19 2.75-.56a4.4 4.4 0 0 0 1.96-1.81h.06zM236.3 33.23h-6.93c.02-.3.09-.64.2-1.02a3.13 3.13 0 0 1 1.65-1.94 3.7 3.7 0 0 1 1.7-.34c1.03 0 1.8.28 2.32.84.5.56.86 1.38 1.06 2.46zm-6.93 2.7h11.2c.07-1.2-.03-2.35-.3-3.45a8.44 8.44 0 0 0-1.37-2.94 6.89 6.89 0 0 0-5.87-2.82 7.62 7.62 0 0 0-7.35 4.95c-.38 1-.57 2.08-.57 3.24 0 1.2.19 2.3.56 3.3a6.86 6.86 0 0 0 4.06 4.24c.98.4 2.08.59 3.3.59 1.76 0 3.26-.4 4.5-1.2 1.24-.8 2.16-2.13 2.76-3.99h-3.75c-.14.48-.52.93-1.14 1.36a3.8 3.8 0 0 1-2.22.65c-1.2 0-2.12-.31-2.76-.93-.64-.62-.99-1.62-1.05-3zM253.64 32.6h4.17c-.06-1-.3-1.86-.72-2.6a5.86 5.86 0 0 0-1.63-1.82 7.09 7.09 0 0 0-2.28-1.1 9.72 9.72 0 0 0-6.02.27 7.07 7.07 0 0 0-4.03 4.43 10.33 10.33 0 0 0-.53 3.34c0 1.16.2 2.23.57 3.2a7.08 7.08 0 0 0 4.06 4.14c.98.39 2.04.58 3.2.58 2.06 0 3.75-.54 5.07-1.62 1.32-1.08 2.12-2.65 2.4-4.71h-4.1a4.04 4.04 0 0 1-1.04 2.3c-.55.57-1.34.85-2.36.85a3 3 0 0 1-1.68-.45c-.46-.3-.82-.68-1.1-1.15-.26-.47-.46-1-.58-1.58a8.43 8.43 0 0 1 0-3.47c.12-.59.33-1.13.62-1.62a3.7 3.7 0 0 1 1.12-1.2 3 3 0 0 1 1.71-.46c1.82 0 2.87.89 3.15 2.67zM260.7 21.23v21.42h4.25v-5.34l1.65-1.59 4.26 6.93h5.16l-6.5-9.81 5.84-5.7h-5.04l-5.37 5.58V21.23h-4.26zM116.06 86.47v-13.5h3.36a7.6 7.6 0 0 1 2.93.5c.79.33 1.42.8 1.9 1.42.48.62.83 1.36 1.04 2.23.2.87.31 1.85.31 2.93 0 1.18-.15 2.18-.45 3a5.5 5.5 0 0 1-1.2 2c-.5.5-1.07.87-1.7 1.09-.65.22-1.3.33-1.99.33h-4.2zm-4.7-17.46v21.42h9.23c1.64 0 3.07-.28 4.28-.83a8.5 8.5 0 0 0 3.03-2.26 9.5 9.5 0 0 0 1.81-3.42c.4-1.32.6-2.76.6-4.32 0-1.78-.24-3.33-.73-4.65a9.14 9.14 0 0 0-2.04-3.3 8.37 8.37 0 0 0-3.1-1.98 11.03 11.03 0 0 0-3.85-.66h-9.24zM136.91 82.69c0-.62.06-1.23.18-1.83.12-.6.33-1.13.62-1.59.29-.46.67-.83 1.15-1.13a3.43 3.43 0 0 1 1.8-.43c.72 0 1.33.14 1.82.43.49.3.88.67 1.17 1.13.29.46.5.99.61 1.59a9.3 9.3 0 0 1 0 3.64 4.84 4.84 0 0 1-.61 1.6 3.24 3.24 0 0 1-2.99 1.54c-.72 0-1.32-.14-1.8-.42a3.28 3.28 0 0 1-1.15-1.13c-.3-.47-.5-1-.62-1.59a9.08 9.08 0 0 1-.18-1.81zm-4.26 0c0 1.24.2 2.36.57 3.36a7.09 7.09 0 0 0 4.14 4.2c.98.38 2.08.57 3.3.57 1.22 0 2.33-.19 3.32-.57a7.06 7.06 0 0 0 4.15-4.2c.38-1 .57-2.12.57-3.36 0-1.24-.19-2.37-.57-3.38a7.26 7.26 0 0 0-1.62-2.58 7.23 7.23 0 0 0-2.53-1.65 8.98 8.98 0 0 0-3.32-.58c-1.22 0-2.32.2-3.3.58-.98.4-1.82.94-2.52 1.65a7.26 7.26 0 0 0-1.62 2.58 9.52 9.52 0 0 0-.57 3.38zM166.01 90.43V74.92h-4.26v8.13c0 1.58-.26 2.71-.78 3.4-.52.7-1.36 1.04-2.52 1.04-1.02 0-1.73-.32-2.13-.94-.4-.63-.6-1.59-.6-2.87v-8.76h-4.26v9.54c0 .96.09 1.84.26 2.63a5 5 0 0 0 .88 2c.42.56 1 .98 1.73 1.28a7.45 7.45 0 0 0 5.44-.15 4.8 4.8 0 0 0 2.1-1.95h.1v2.16H166zM180.62 82.69c0 .64-.07 1.26-.2 1.86-.15.6-.37 1.13-.67 1.59-.3.46-.67.82-1.12 1.1-.45.27-1 .4-1.64.4a3.14 3.14 0 0 1-2.76-1.5c-.3-.46-.52-.99-.66-1.59a8.16 8.16 0 0 1 0-3.75c.14-.6.36-1.13.66-1.59a3.14 3.14 0 0 1 2.76-1.5 3.12 3.12 0 0 1 2.76 1.5c.3.46.52.99.66 1.59.14.6.21 1.23.21 1.89zm-11.37-13.68v21.42h4.05v-1.98h.06a3.88 3.88 0 0 0 2.04 1.83c.9.36 1.92.54 3.06.54a5.9 5.9 0 0 0 4.37-1.95c.6-.66 1.1-1.5 1.48-2.54.38-1.03.57-2.25.57-3.67s-.19-2.65-.57-3.67a7.52 7.52 0 0 0-1.48-2.54 5.91 5.91 0 0 0-4.37-1.95c-.96 0-1.88.18-2.77.56-.9.37-1.6.95-2.12 1.75h-.06v-7.8h-4.26zM187.7 69.01h4.26v21.42h-4.26zM205.76 81.01h-6.93c.02-.3.09-.64.2-1.02a3.13 3.13 0 0 1 1.65-1.93 3.7 3.7 0 0 1 1.7-.35c1.03 0 1.8.28 2.32.84.5.56.86 1.38 1.06 2.46zm-6.93 2.7h11.2c.07-1.2-.03-2.35-.3-3.45a8.44 8.44 0 0 0-1.37-2.94 6.89 6.89 0 0 0-5.87-2.82 7.62 7.62 0 0 0-7.35 4.95c-.38 1-.57 2.08-.57 3.24 0 1.2.19 2.3.56 3.3a6.86 6.86 0 0 0 4.06 4.25c.98.38 2.08.58 3.3.58 1.76 0 3.26-.4 4.5-1.2 1.24-.8 2.16-2.13 2.76-3.99H206c-.14.48-.52.93-1.14 1.36a3.8 3.8 0 0 1-2.22.65c-1.2 0-2.12-.31-2.76-.93-.64-.62-.99-1.62-1.05-3zM231.9 82.63c0 .64-.07 1.26-.19 1.86-.12.6-.32 1.14-.6 1.6-.28.47-.65.85-1.12 1.13-.47.28-1.06.42-1.76.42-.66 0-1.22-.14-1.7-.43a3.74 3.74 0 0 1-1.16-1.14c-.31-.47-.54-1.01-.68-1.61a7.9 7.9 0 0 1-.01-3.64 4.9 4.9 0 0 1 .63-1.58c.29-.46.67-.83 1.15-1.11a3.46 3.46 0 0 1 1.77-.42c.7 0 1.28.14 1.74.42.46.28.84.65 1.13 1.1.29.44.5.96.61 1.55.12.6.18 1.21.18 1.85zm.05 5.82v1.98H236V69.01h-4.26v7.8h-.06a4.57 4.57 0 0 0-1.96-1.73 6.1 6.1 0 0 0-2.63-.58 6.38 6.38 0 0 0-5.14 2.46c-.57.74-1 1.6-1.3 2.56a11.15 11.15 0 0 0 0 6.14 8.3 8.3 0 0 0 1.3 2.65c.57.77 1.3 1.38 2.17 1.83.88.45 1.9.68 3.06.68 1.02 0 1.94-.18 2.75-.56a4.4 4.4 0 0 0 1.96-1.81h.06zM249.65 81.01h-6.93c.02-.3.09-.64.2-1.02a3.13 3.13 0 0 1 1.65-1.93 3.7 3.7 0 0 1 1.7-.35c1.03 0 1.8.28 2.32.84.5.56.86 1.38 1.06 2.46zm-6.93 2.7h11.2c.07-1.2-.03-2.35-.3-3.45a8.44 8.44 0 0 0-1.37-2.94 6.89 6.89 0 0 0-5.87-2.82 7.62 7.62 0 0 0-7.35 4.95c-.38 1-.57 2.08-.57 3.24 0 1.2.19 2.3.56 3.3a6.86 6.86 0 0 0 4.06 4.25c.98.38 2.08.58 3.3.58 1.76 0 3.26-.4 4.5-1.2 1.24-.8 2.16-2.13 2.76-3.99h-3.75c-.14.48-.52.93-1.14 1.36a3.8 3.8 0 0 1-2.22.65c-1.2 0-2.12-.31-2.76-.93-.64-.62-.99-1.62-1.05-3zM267 80.38h4.16c-.06-1-.3-1.86-.72-2.6a5.86 5.86 0 0 0-1.63-1.83 7.09 7.09 0 0 0-2.28-1.09 9.72 9.72 0 0 0-6.02.27 7.07 7.07 0 0 0-4.03 4.42 10.33 10.33 0 0 0-.53 3.35c0 1.16.2 2.22.57 3.2a7.08 7.08 0 0 0 4.06 4.14c.98.38 2.04.58 3.2.58 2.06 0 3.75-.54 5.07-1.62 1.32-1.08 2.12-2.65 2.4-4.71h-4.1a4.04 4.04 0 0 1-1.04 2.3c-.55.56-1.34.85-2.36.85a3 3 0 0 1-1.68-.45c-.46-.3-.82-.69-1.1-1.16-.26-.47-.46-.99-.58-1.57a8.43 8.43 0 0 1 0-3.47c.12-.59.33-1.13.62-1.62a3.7 3.7 0 0 1 1.12-1.2 3 3 0 0 1 1.71-.46c1.82 0 2.87.89 3.15 2.67zM274.04 69.01v21.42h4.26v-5.34l1.65-1.59 4.26 6.93h5.16l-6.5-9.81 5.84-5.7h-5.04l-5.37 5.58V69.01h-4.26zM116.06 125.19v-5.01h4.41c.42 0 .83.03 1.22.1s.73.2 1.03.38a2 2 0 0 1 .72.75c.18.32.27.73.27 1.23 0 .9-.27 1.55-.8 1.95-.55.4-1.24.6-2.08.6h-4.77zm-4.7-8.67v21.42h10.37c.96 0 1.9-.12 2.8-.36a7.5 7.5 0 0 0 2.44-1.11 5.47 5.47 0 0 0 2.32-4.74c0-1.34-.32-2.49-.97-3.44a5.15 5.15 0 0 0-2.96-1.99 5.34 5.34 0 0 0 2.18-1.77 4.7 4.7 0 0 0 .73-2.7c0-1-.16-1.84-.5-2.52a4.12 4.12 0 0 0-1.39-1.64c-.6-.4-1.32-.7-2.16-.88-.84-.18-1.77-.27-2.79-.27h-10.08zm4.7 17.76v-5.88h5.13c1.02 0 1.84.23 2.46.7.62.48.93 1.26.93 2.36 0 .56-.1 1.02-.28 1.38-.2.36-.45.65-.77.85-.32.21-.69.36-1.1.45-.43.1-.87.14-1.33.14h-5.04zM142.46 128.52h-6.93c.02-.3.09-.64.2-1.02a3.13 3.13 0 0 1 1.65-1.93 3.7 3.7 0 0 1 1.7-.35c1.03 0 1.8.28 2.32.84.5.56.86 1.38 1.06 2.46zm-6.93 2.7h11.2c.07-1.2-.03-2.35-.3-3.45a8.44 8.44 0 0 0-1.37-2.94 6.89 6.89 0 0 0-5.87-2.82 7.62 7.62 0 0 0-7.35 4.95c-.38 1-.57 2.08-.57 3.24 0 1.2.19 2.3.56 3.3a6.86 6.86 0 0 0 4.06 4.25c.98.39 2.08.58 3.3.58 1.76 0 3.26-.4 4.5-1.2 1.24-.8 2.16-2.13 2.76-3.99h-3.75c-.14.48-.52.94-1.14 1.37a3.8 3.8 0 0 1-2.22.64c-1.2 0-2.12-.31-2.76-.93-.64-.62-.99-1.62-1.05-3zM149.24 122.43v15.51h4.26v-8.13c0-1.58.26-2.71.78-3.4.52-.7 1.36-1.04 2.52-1.04 1.02 0 1.73.32 2.13.94.4.63.6 1.59.6 2.87v8.76h4.26v-9.54c0-.96-.08-1.83-.25-2.63a5 5 0 0 0-.89-2c-.42-.55-1-.98-1.72-1.3a7.24 7.24 0 0 0-5.45.15 4.89 4.89 0 0 0-2.1 1.97h-.09v-2.16h-4.05zM178.04 130.14c0 .64-.06 1.26-.18 1.86-.12.6-.32 1.14-.6 1.6-.28.47-.65.85-1.12 1.13-.47.28-1.06.42-1.76.42-.66 0-1.22-.15-1.7-.44a3.74 3.74 0 0 1-1.16-1.14c-.31-.47-.54-1-.68-1.6a7.9 7.9 0 0 1-.01-3.65 4.9 4.9 0 0 1 .63-1.57c.29-.46.67-.83 1.15-1.11a3.46 3.46 0 0 1 1.77-.42c.7 0 1.28.14 1.74.42.46.28.84.64 1.13 1.1.29.44.5.96.61 1.55.12.6.18 1.21.18 1.85zm.06 5.82v1.98h4.05v-21.42h-4.26v7.8h-.06a4.57 4.57 0 0 0-1.96-1.73 6.1 6.1 0 0 0-2.63-.58 6.38 6.38 0 0 0-5.14 2.46c-.57.74-1 1.6-1.3 2.56a11.15 11.15 0 0 0 0 6.13 8.3 8.3 0 0 0 1.3 2.66c.57.77 1.3 1.38 2.17 1.83.88.45 1.9.68 3.06.68 1.02 0 1.94-.19 2.75-.56a4.4 4.4 0 0 0 1.96-1.81h.06zM193.01 139.86l6.48-17.43h-4.4l-3.4 10.62h-.06l-3.5-10.62h-4.54l5.43 14.55c.12.3.18.62.18.96 0 .46-.13.88-.4 1.26s-.69.6-1.25.66c-.42.02-.84.01-1.26-.03l-1.23-.12v3.51l1.3.1c.44.03.87.05 1.31.05 1.46 0 2.6-.27 3.42-.81a5.25 5.25 0 0 0 1.92-2.7z"/>
  <path fill="#6a6a6a" d="M88.29 43.18H36.86c-.95 0-1.72-.77-1.72-1.71V24.32c0-.94.77-1.71 1.72-1.71h51.43c.94 0 1.71.77 1.71 1.71v17.15c0 .94-.77 1.71-1.71 1.71zM45.43 32.9v-6.86H39.6c-.57 0-1.03.46-1.03 1.02v4.81c0 .57.46 1.03 1.02 1.03h5.84zm3.43-6.86v6.86h6.85v-6.86h-6.85zm10.28 0v6.86H66v-6.86h-6.86zm10.29 0v6.86h6.86v-6.86h-6.86zm16.12 0H79.7v6.86h5.84c.56 0 1.02-.46 1.02-1.03v-4.8c0-.57-.46-1.03-1.02-1.03z"/>
  <circle cx="42" cy="43.18" r="3.43" fill="#4a4a4a"/>
  <circle cx="76.29" cy="43.18" r="3.43" fill="#4a4a4a"/>
  <g>
    <path fill="#6a6a6a" d="M89.64 138.52H21.06c-.94 0-1.7-.77-1.7-1.72v-17.14c0-.95.76-1.72 1.7-1.72h68.58c.94 0 1.71.77 1.71 1.72v17.14c0 .95-.77 1.72-1.71 1.72zm-60-10.29v-6.86H23.8c-.56 0-1.02.46-1.02 1.03v4.8c0 .57.46 1.03 1.02 1.03h5.84zm3.42-6.86v6.86h6.86v-6.86h-6.86zm10.3 0v6.86h6.85v-6.86h-6.86zm10.28 0v6.86h6.85v-6.86h-6.85zm17.14 0v6.86h6.86v-6.86h-6.86zm16.12 0h-5.84v6.86h5.84c.56 0 1.02-.46 1.02-1.02v-4.81c0-.57-.46-1.03-1.02-1.03z"/>
    <path fill="#fff" fill-opacity=".5" d="M62.2 117.94v20.58h-.85v-20.58h.86zm1.72 0v20.58h-.85v-20.58h.85zm1.72 0v20.58h-.86v-20.58h.86zm1.71 0v20.58h-.86v-20.58h.86zm1.72 0v20.58h-.86v-20.58h.86zm1.71 0v20.58h-.86v-20.58h.86z"/>
    <circle cx="26.21" cy="138.52" r="3.43" fill="#4a4a4a"/>
    <circle cx="53.64" cy="138.52" r="3.43" fill="#4a4a4a"/>
    <circle cx="77.64" cy="138.52" r="3.43" fill="#4a4a4a"/>
  </g>
  <g>
    <path fill="#6a6a6a" d="M89.64 93.64H38.17c-.95 0-1.72-.77-1.72-1.72V64.47c0-.94.77-1.71 1.72-1.71h51.47c.94 0 1.71.77 1.71 1.71v27.45c0 .95-.77 1.72-1.71 1.72zm-42.9-10.3v-6.86h-6.86v5.94c0 .51.42.93.93.93h5.93zm3.44-6.86v6.87h6.86v-6.87h-6.86zm10.29 0v6.87h6.86v-6.87h-6.86zm10.3 0v6.87h6.86v-6.87h-6.87zm17.15 0h-6.86v6.87H87c.5 0 .92-.42.92-.93v-5.94zM87 66.2h-5.94v6.86h6.86v-5.94c0-.5-.41-.92-.92-.92zm-16.24 0v6.86h6.87V66.2h-6.87zm-10.29 0v6.86h6.86V66.2h-6.86zm-10.3 0v6.86h6.87V66.2h-6.86zm-10.29 6.86h6.86V66.2h-5.93a.92.92 0 0 0-.93.92v5.94z"/>
    <circle cx="43.31" cy="93.64" r="3.43" fill="#4a4a4a"/>
    <circle cx="77.63" cy="93.64" r="3.43" fill="#4a4a4a"/>
    <circle cx="67.33" cy="93.64" r="3.43" fill="#4a4a4a"/>
  </g>
</svg>
