<svg xmlns="http://www.w3.org/2000/svg" xmlns:xlink="http://www.w3.org/1999/xlink" fill="none" viewBox="0 0 640 400">
  <defs>
    <path id="reuse-0" d="M223 56a4 4 0 1 1-8 0 4 4 0 0 1 8 0zM233 66a4 4 0 1 1-8 0 4 4 0 0 1 8 0zM247 52a4 4 0 1 1-8 0 4 4 0 0 1 8 0zM253 36.5a4 4 0 1 1-8 0 4 4 0 0 1 8 0zM263 46.5a4 4 0 1 1-8 0 4 4 0 0 1 8 0zM273 56.5a4 4 0 1 1-8 0 4 4 0 0 1 8 0zM283 66.5a4 4 0 1 1-8 0 4 4 0 0 1 8 0zM211 122.5a4 4 0 1 1-8 0 4 4 0 0 1 8 0zM217 143a4 4 0 1 1-8 0 4 4 0 0 1 8 0zM227 153a4 4 0 1 1-8 0 4 4 0 0 1 8 0zM237 184a4 4 0 1 1-8 0 4 4 0 0 1 8 0zM243 198a4 4 0 1 1-8 0 4 4 0 0 1 8 0zM253 208a4 4 0 1 1-8 0 4 4 0 0 1 8 0zM271 198a4 4 0 1 1-8 0 4 4 0 0 1 8 0zM291 188a4 4 0 1 1-8 0 4 4 0 0 1 8 0zM309 184a4 4 0 1 1-8 0 4 4 0 0 1 8 0zM273 180a4 4 0 1 1-8 0 4 4 0 0 1 8 0zM254 185a4 4 0 1 1-8 0 4 4 0 0 1 8 0zM257 169.5a4 4 0 1 1-8 0 4 4 0 0 1 8 0zM242 151a4 4 0 1 1-8 0 4 4 0 0 1 8 0zM234 132a4 4 0 1 1-8 0 4 4 0 0 1 8 0zM227 110.5a4 4 0 1 1-8 0 4 4 0 0 1 8 0zM223 93.5a4 4 0 1 1-8 0 4 4 0 0 1 8 0zM241 81.5a4 4 0 1 1-8 0 4 4 0 0 1 8 0zM225 80.5a4 4 0 1 1-8 0 4 4 0 0 1 8 0z"/>
  </defs>
  <mask id="a" fill="#fff">
    <use xlink:href="#reuse-0"/>
  </mask>
  <mask id="b" fill="#fff">
    <path d="M250 175h121v81H250z"/>
  </mask>
  <mask id="c" fill="#fff">
    <rect width="14" height="14" x="413" y="321" rx="2"/>
  </mask>
  <path fill="#fff" d="M0 0h640v400H0z"/>
  <path fill="#f6f4ea" stroke="#bebaa6" d="M280.6 7c-1.5 0-3.2.3-5.4.8l-1.5-.4-7.6 1.2-3.3 1.7-1 1.4-1.3.4-4.6 2.6-3.8 2.7-3.5 2-6.4 4.5-5.5 4.5-5.9 2.2-5.2 3.3-2.9 1.6-2.3 2.5-.2 2s-1.4-.3-1.8 0l-.8 1s0 1.4-.4 2.2c-.3.6-1.1.5-1.3.7-1.8 1.7-2.5 2.9-2.5 2.9l-9.5.3-1.2 1.1h-1L203 52c.2.7-.2 1.8-.2 1.8s-1 1.5-1.2 2.6c-.3 1.1-.2 2.5-.2 2.7l1.2 7.6c.1.7.5.8.5 1.5l.7 4.6c0 .6 1 4.1 1.3 5.4.3 1.3 0 3.5 0 4.2-.2.6-.6 3-1 4.2l-1.5 4.1c-.5 1.3-1 3.9-1 4.9 0 1 1.8 10.2 1.8 10.2l-.8.2-1.3-8c-.2-1.1-.5-4-.1-5.6.4-1.5.3-2.3 0-3.2-.3-1-2-1.5-3.2-1.5-1.3 0-5.6-.4-7.1-1a6 6 0 0 1-3-4.1c-.2-1.4.5-2.6.8-4.1.2-1.5-.3-2.1-.3-2.1l-1.4-4c-1.4.5-2.8 1.3-3.3 2.7-.9.1-1.7.1-2.5.3-.5.5-.7 1.2-1 1.7-1 .4-2.1.4-2.7 1.3l-.3 1 .5.6c.4.5 0 .5-.9 1v.3c-.8.3-1.8.3-2.5.8l-.1 1c-.2 1 .5 1.2.9 1.8.3.6 2.9 5.5 3 6.4l.1.2.7.5-.2.8.3.9 1 1.2h.4l1.4 1.5.1 1.5c0 .4.6.5.6.5v.7l-.4.6v.3l-.8 1-.2.9 1.3-.7c0 .7.6 1.6-.3 1.9-1.4.4-1.5 2-2 3.1 1.4 1 3 1 4.5 1v.9h-3.4c1 1.4 2.6 2.5 2.9 4.3l-1 .1c-1.6-1.1-2.5-3-3.7-4.5-1 3.8-1.5 7.7-1.8 11.6l-1 .2c-.7-4.5.3-8.8 1.3-13.1.5-2-.4-3.8-.4-5.7 0-1.6-1.1-2.8-1.2-4.3l-4-6.4c-.7.9-1.5 1.8-2 2.9 0 .8.3 1.2.3 1.2v4l-.3 1c-1 1.5-2.1 3-3.3 4.3-1.4.3-3.3 0-4 1.5-.3 2.1.4 4.2.2 6.2-.5 1-1.4 1.7-1.9 2.7-.1 1.4.3 2.9.6 4.2a6.1 6.1 0 0 1-5.1 1.5c.8-1 2.2-1.4 3.4-1.9.2-1.3-.5-2.7-.2-4.1.3-1.3 1.7-2.1 1.5-3.5 0-1.7-.4-3.4-.6-5h-1c-2.8-.4-4.3 2.4-5.8 4.2l-2-.6 1.5-1.4.4-1c1.4-1 2.6-2.5 4.4-2.9-1.2-1.6-3-3-3.4-5l1.1-.2c2 1.2 2.6 4 5 5l2-1 .4-2h.6v-.3l2-.8.4-1.6c-.7-.4-1.8-.5-2.2-1.4l1.8-2c-.1-.7-.5-1.5 0-2.1.9-.8.7-2 .9-3 .5-.7 1.3-1.2 1.7-2 .2-1.2 0-2.5-.2-3.7H167c-.7.9-1.2 1.9-2 2.7l-.7-.2.3-3.3c-1.8.2-3.6.4-5.2 1.2-1 .4-1.8 1-2.9.7l-1-2c1-1.4-.2-3.4-1.8-2.9-1.3 1.5-1.8 3.6-3.6 4.7l.8 1.9c-.2 1-.6 2.5-2 2-1.4.1-2-1.6-3.2-2h-2.2l-.5-2 3-.4c1.3-.5 2.3-1.3 3.4-1.8-.6-.7-1.2-1.6-2.3-1.5-2.3-.5-4.2 1.1-6.4 1.3l.6-4.2 1 .5V77l1.9 1.4c.2.1.5.3 1 .3l2-.1.6-.2c.2-.1 1.4-.2 2-.5.5-.3.8-.2 1.4-.8.4-.5.8.2 1.2.7.8-.4 1.2-1.4 1.8-2 .8-.3 1.6-.4 2.4-.5l.8.8.8.3c.6.4.8 1 1.2 1.4l1.2.8c.4.3.7.6 1.5.7 1.6.1 3.2-.3 4.8-.6-.2-.7-.3-1.8-1.1-2.2-.6-.6-2-.8-1.5-1.9 1 0 1.9.5 2.8 1 .4-.3.9-.4 1.4-.6l1 1 1.6.2c3.5-1.9 6.1-5 9-7.6 0-1 .2-1.9.3-2.8h-2.1c.7-1 1.7-1.7 2.7-2.5l.7-2.5c.3-1 .8-1.8 1.3-2.6l-2.3-.4-.7-1.5 1.6-2.2 2-.2c-.8-.7-1.2-1.6-1-2.6h.8l-.7-.9-.3-.7.2-1h7.4l.9 2 .3.6h.5c1.6 2.8 3.7 5.5 3.2 8.9l-.2.2c0 .3-.2.2-.3.5 0 .2-1.8 2.2-2 2.4l-.2.4c0 .2 0 .6-.2.8l-.5.5c-1 1.4-2.2 2.5-3.5 3.7l-.2.2-.2.2-.1.2v.8s2.5 7.6 2.6 8.4c0 .8-.3 2-.5 3.3-.3 1.2.4 2.1 1 2.7.4.6 2.6 1.5 3.7 1.5s3.2.2 4 .4c1 .2 4 1.4 4 1.4l1.4-3.5c.3-1.1.3-4.1.3-4.1l-2.6-12.4-1.4-9.7.4-1.8v-.7l1.2-3s.2-.7 0-1.3l-1-3.4h-.4l-.8 1-2-1.6-1.2-.2-2.4-2h-1l-.7-.8-.8.3-1.2 1.6v1.2h-7.8V47c0-1.3 1-2.3 1.4-3.5 0 0-.2 0-.3-.2l-1-.8-2.4-1.4h3.5c-1.2-1.3-3.5-1.4-4.5-3-1-1.7-2.5-3-3.5-4.6-.3-.7-1-.5-1.6-.4l-1.8-.8-.8.7-2 1.2c-.7.6-1.5.6-2.3.8l-2 .5c-.5 0-.3-.3-.3-.3-.3.4 1-2.6.9-2.4-.3-.3 0-1.1-.4-1.3-.5-.4-1.1-.7-1.8-.7-3.4.3-6.7 1.3-9.8 2.3a9.1 9.1 0 0 0-3.8 2.6c-1.8 1.8-3 2.2-5 3.8-1 .8-2.2 1.9-3 2.9-1.2 1.4-3.1 2-4.3 3.4-2.3 2.1-5.2 5.6-8.1 6.9A41 41 0 0 0 123 54s-2.4 0-3 1.1c-.3.5 0 1.4-.3 1.9-1-.2-2.3-1.1-3.3-1.2-1 1-2 2.3-3.4 2.7-1 0-1.8-.3-2.8-.3-1.2 1-1.8 2.1-2.6 3.5l-1.5.5c-.8 1.7-1.3 3.6-1.6 5.5-.3 1.2.1 2.4-2 2.9-.1.4 1 1.2 1 1.2s-1.2.4-1.2 1.4c0 .6-.6 2-.4 2.6.4.9 1.7 1.3 1.7 1.7-1 0-3.8-.1-3.4 1.3.2.7.8 1.3.8 1.3s-3 2.8-4.1 3.4c-.3-1.1-1.9-1.4-3-.3-.5 1 .2 1.4-.3 2.4l-2.7.7c-.1 1.6.4 3.2.8 4.8-1.4 4-.4 8.5-1.1 12.7l-1.2 4c-1.4 1.2-2.3 3-3.9 4-1.2.9-1.1 2.5-1.3 3.9-1.9 2.5-2.5 5.7-4.3 8.3l-1.4 1c-.3-.1-.5-.4-.7-.6l-1.4.4c0 .6.2 1 .3 1.7-.7.1-1.3.2-2 .5-.4 1.3.1 3.4-.8 4.5-.8 1.3-1.6 2.4-2.1 3.8a35 35 0 0 1-3.6 6.5l-2.2 3.5s-2.6.6-2.8 1.5c-.4 1.9-1.6 5.5-1.6 5.5l-1 3c-.5-2.6-3.5-1.7-4.2-.1-2.3 5.7 0 6.5 2 6.5l-1 1.3v1.3l-1.7 1.7.2 2.6-19.4 52.8c-.4-.4-1 0-1.3.6l-.5 3c.3.8 1.6 2.7 1.6 2.7 3.3 5.6 2.4 10.4-2.2 15-1.6 1.7-3.9 2-6.1 2.5l-.2 1.8-.2 2.4s-4 6.7-5.8 10.3c-.6 1.2-1.4 2.4-1.5 3.7-.3 2-.7 3.6 1.7 3.6H25v5.5h3.2v3.4H24l-.5.7v2.6l.3.3v.3l-.3.4v2.8l1.4 1.1h4v3.4c-2-.7-3.9-.4-5.8-.4-.3-1.5-2.6-1.8-3 0v4c1-.6 1.4-.1 2 0 2 .2 3.9.2 5.2 0l1.5 4.5 2-.9 1.7.1 2.6 4.5v7.3l-.1 1h-1.3l-3.2 2.8-1.8.4-3.1 3.2c-.5.6-.6 1-.6 1.7 0 .5 0 .7-.5.8h-1.3c-1-.6-1.7-1.3-2-2.6.3 0 .5 0 .4-.4 0-.2-.1-.3-.4-.3a102.3 102.3 0 0 1-1.1 0c.1 1.1.4 2 1.2 3 .6.7 1.3 1 2.2 1.3l42 11.3h1l.7-.4c2-1.6.6-3.3-1.2-2.3-.6.4-.6.7-.8 1.4h-.3l-1-.1-34.3-9.2c-1.5-.5-4.7-2.1-3.3-3.7l2.7-2.9 2.4-.4 2.7-2.7 1.7-.1.4-1.2-.1-7.9-1.6-3.2 1.2-1H39c1.2 0 1-1.7.9-2.5-.1-.8-4.9-9.4-7.2-13.7-1.3-2.7-.4-4.4 2.3-5.7l13.1-6.5-.3-.7L40 270l.1-5L62 255l-.3 4.3-6.8 3.4.4.7 7.3-3.7 1.2-16.5c7.6 2 14.4-1.3 10.9-9l-8.1-13.9-.4-1.4-2.7-4.5-.3-1.5-2.2-4.1-1.7-2.1-1.2-1.4c-1.1-.7-1.6-1.4-1.1-2.5.7-1.8 2.8-5.2 2.8-5.2l7.1 7 2.1-1.8.4-.7 5.7-5.8 2.5 2.6-7.3 8.3 4.6 5.3 8.2-8.8 1.5 1.6-9.6 10.7 1.8 2.1 2.7-2.2 3.3 3.9.7-.6 1.1 1.3-1.7 1.4 1 1.1 1.8-1.6 1.2 1.4-1 .8 7.1 3.6c1.1.8 1.4 1.3 1.6 2.6.1 1.2.7 1.6 1.8 2l9.4-8.3-6.4-6.6-.6-6.8 5-.6.3 5.4 6.6 7 4.1-1.7-1-13.3 1-1 1.4 2 .8 11 4.3-.7h5.6l2.8-1.6v-2.9l-.3-2.2.8-1.8.3-.5 1 1c-.7.5-.8.5-.8 1 0 .4.2.5.6 1.6.5 1 .5 2.3.5 2.3v3.2h5.3v-4.7l-4.3-4.5c-.2 0-.4.2-.5.4l-1-1 .2-.3h3v1.2c1.6 2.1 3.3 3 5.8 3.3v2.8h7.6v-6.9l3.4-1.6v21.2l-1.7-.9c-.4-.2-1.8-.3-3.1-.3h-2l-1.3 1.6-1.2.4-.4.5v1.1l2 1.7.4.5 1.1.2 1 1.8.3 1.3-.9.7-.2 1 .9 1.2-.2 1.4 2 3.4 1.9.5v1l-1.3 1.2-.1 1.3-1.4-.4.2-2.5-.6-.7-1-.5-1.4 1.6-1.2-.4-.6-2.3s-4-6.8-4.5-6.2l-6.4 6.6 1.1 2-3.3 2.3-1.7-1-2.6 3.2-2.3 2.5-5.4-4.7 8.5-8.2.6-2.2s4.2-4.5 5.7-6.6c.3-.4-.8-1-.8-1h-8c-2.5 0-6.1 1.5-6.1 1.5l-34 23.4 1.7 3 3.8 5v3.6l3 5.7.9 1.5 7 12.3-5.3 3 .7 1.4 3.9 8.6c.2.5.8.3.8.3l4.6.3 3.8 8.3-4.6 4.4-.5-.1-1.8-3.9-.5-1.6h-.4l.2 1.5 2 4.4s1.4 1.1 1.9 1.2c.4.1 1.4-.5 1.4-.5l10.7-11-.6-1.3 5.8-5.3 1 .4s2.3-2.1 2.7-3.3c.3-1.2 0-2.7 0-2.7l-5-17.4c-.4-1.2-1-2.1-1-2.1l-7-6.5 6.2-6.4 9 7.6 2.3 3 2.8 10.6 7.9-2s8.4-3.7 9.6-4.5c1.3-.9 4-2 4.7-2.8.7-.9-.3-1.8-.3-1.8-3.4-2.4-6-5.1-11.1-6.8l1.6-3.5c0-.3 3.6 1.4 3.6 1.4l1.4-2.5.4-.2s.2.7.2 1.5v.5c0 .6.3.7.6 1.1.3.4.9.5 1.4.8l6.1 4 4 2.6 2.9.7 2.3-.3 2-.5 2.7-1.4c.5-.2 1-.2 1.5-.5.7-.4 1.3-.8 1.2-1.1-.2-.5-1.3-1-1.6-1.6l.1-.9c.1-.2.6-.2.7-.4.2-.5 0-1.2 0-1.2l-1.1-.8c-2-.8-2.8-1.6-6.6-2.3l3-2.7 5.8 1.6 1.5.2 1 1.3 1.7-.8 2.2-.1c1.3 0 .5-.2 1.3-.5.9-.4 3.1-3.2 3.6-4 .4-.8-.8-1.3-.8-1.3l-5.6-5-4-.4-6-6.4s-.4-.7-.4-1.6-.4-2-1-2.9c-.7-.8-.9-1.6-1.6-2.4-.7-.9-4.1-1.9-4.1-1.9l-2.1 1.5h-.5l1.1-1.8-1.8-.6-.5 2-1.2-.4-1.8-.6-4.3-.2-.3-.2v-10h13.4v-.6h-2.7l.5-1-.8-1-7.1-6H152v-3h1v.6h3.8l8.3 6.9 6.6 3.4.6-.2-2.3-7.2-2.7 1.7-1.2-1 3.4-6.3-.9-.6 1.4-2.3 2.3-4.4 4.1-7.4c.3-.7 1.2-2.1 1.2-3 0-1-1.2-3-1.7-3.8-.6-.9-2-.1-2-.1-.4.1-1.4.2-2 0-.5-.2-.8-.1-.8-1s-.1-1 .4-2.4c.6-1.4.8-1.3 1-2 .2-.8 0-1 0-1.2l-.1-1-.1-1.5c-.1-.6-.4-.9-.9-1.2-.5-.2-.8-.5-.9-.8l.2-1.3c.1-.7.3-1-.1-1.1l-1.2-.6-1.2-1.4h-1.2c-.2 0-1.8.3-2.2-.3-.4-.6-.9-1.5-.2-2.2.5-.6 1.2-1 1.8-1h.4c.7.1 1.1-.4 1.9.5.7.8 1 1.2 1.7 1s1-.3 1-.5v-.7l.6.2.2.4 1.6 1c.4.4 1 1.2 1.2 1.8.3.6.1.8.5 1.1.5.4.5.3.8.7l.5.8c.1.5.1.3.6 1 .5.8 0 .2.5.8.4.7.3.6.4 1.4l.4 1s-.2.2.4.1l.8-.2.4 5.2s-.6-.3-.9.1l-.4 1-.7 1.6s-.5.7-.1 1.4l1 2.3c.2.5.4.3-.2 2.1-.6 1.8-1 4.2-1.2 4.7l-1.5 3.2-4.5 6.8-.5 1 .2 3.6 2 7.2 1.7 1.7 12.6 3 3.2-3.2 1.7.5-1.7 2.4c2 2.4 4.7 2.7 7.8 2.8 2.9.1 5.7 0 8.3-1.4l-4.9-11.3-4.6 3.3c-3 2.4-6.2.5-8.2-1.8-3-3.3-5-6.1-8.3-7.6-.4-3.8.9-6.6 2.1-10l16.2 3.5-2.2 4.4c-1.1 2.5-.8 3.3.3 4.3l2.5.1 2 .8 1.1 1 .6.8 1.6 2.2 3.7-2.5.2.4-3.8 2.6.1 1.4.7 1.5 1 2 1.6 2.1 6.8 6.3-2.5 5 14 8.6-4.1 6.9-15.7-9.6-4 1-3.3 5.3 18.1 11.2 7 4.3 4.9-7.9 4.2-6.9.5-.7 2.8 1.7-1 1.7 9 5.5-11 18 2.6 1.5 3.1 2 2.9 1.7 5.5-9 3-5-.6-.4-3.1 5-2.2-1.3 3.4-5.5 1.5-1v-1.3l.7-1.2.7-1.2.8.3 2.2 1.5 1-1.6.4.3-.9 1.4 13.6 9.7.4-.4c.1-.2.2-.4 0-.7l-.5-1.6 1-1.3-1.8-1.6.4-.4 2.7 2.5c.5.4 1.3.8 2 .6.2 0 .1.4.3.3l.8-.8.5-.6c.3-.3.4-.5.7-.6.3-.2.6-.2 1.1-.2.8 0 1 .2 1.6.7l1.4 1.2-1.8 1.8-.8-1h-.2v-.5c-.4-.7-1.5-.5-1.5.1-.2 1-.7.6-1.2 1-.2 0-.2.2-.1.4 0 .2 0 .4.2.6.3.3.6.1 1 .1v.1l.1.4h.2l.1-.2 2.4-.3c.2 0 .2-.1 0-.3v-.1l1.8-1.9 1.5 1.3 2-3.8.4.2-1.6 3-.1.9 1.3.1v-.6h2.2l.2.9h5v7.8h-.1l-.4-.8-.6-.4c-.6-.4-.4-.1-1.2-.3-.7-.2-.4-.3-1.5-1-1-.8-1.7-1-2.8-1.3-1-.3-2.7-.1-3.4.6-.6.8-1.5.7-1.7.7l-5.7-1.2c-1-.3-1-.3-1.5 0-.4.2-.7 0-1.3-.3h-.3c-.2 0-.2.1-.4.5-.3.5 1.5 1.5 1.5 1.5l.7.8c.4.3.3.5.3.9s.2.7.6 1.2c.4.5 1.1.7 1.5 1a27 27 0 0 0 5 4l3.8 2.3s1.2 1 1.9 1.3l2.4 1.2c1.4.6 1.1.8 1.8 1.4.6.6 2.5 2.5 3.5 4 1 1.4 5.4 4.6 6.2 5 .9.5 1.1 1 2 1.7.9.7 2.1 0 2.1 0l1.7-1.4 1.6.4-.1.4h.9l2.5-2c.2-.3.7-.3.7-.3s.8-.9.9-1.4c.1-.6-.3-.4-.8-.6s-.3-.1-.6-.6c-.2-.5.3-.5.5-1l.4-1.5v-2.4c.1-.8.4-.6.6-1.1.3-.5.7-.3 1-.2.4 0 .4.4.4 1 .1.5-.2.4-.3.9 0 .5 0 .7.2 1.3v1.2c0 .6-.2.7-.2 1 0 .5.3.5.6.4.3 0 1.3-1 2-2 .8-.8 5.5-7.5 5.7-8.6.2-1-.2-1-.5-1.1l-1.7-1c-.8-.3-.7-.3-1.7.3l-1.1.7c-.4.2-.7.1-1 .2l-1 .2c-.4.2-.4.2-.8-.1-.3-.3 0-.3-.1-1 0-.6.3-1-.3-1-.5 0-.7.4-1.6.4-.8 0-.3-.5-1.1-.7-.9-.1-1-.1-1.8.3-.7.4-1 .5-2.7.8s-2.7-.6-3.6-1.5c-.9-1-3.5-.5-5.8-.2-2.3.4-5-2.2-5-2.2h.2l.1-8.2v3.7c.2.5.5 1 .9 1.2.2.4 1.8 1.1 2.1 1.3l1.5.6 3.1 1 .9-.4 1 .5-.3.5 6 2 7.3-3.9-7.3-7.5-6.7.3-7.9 4v-3.3l9.3-5.3 9.7-.2 7.2 7.3 1.4-1.3-3.4-3.5 1.6-1.4 7.1 7.4 1.1-1-1.8-2 .6-.7h1l.2-11.6 2.7 2 3 1.7 1.6.3c-.5 2 .2 2.5 1 3.2.6 0 1.2-.4 1.7-.7.5-.3 1-.4 1.2-1l2.7-1.3 1.7-2.2 2-1 5.6-4.6c1.5-1.2 2-2.3 2-3.4l4.1-3.4c1.2.3 2.5 0 3.7-1.3l3.7-3.4 3.4-2.2h1.4l4-4.3 2.3-.1 1.5-1.7 2.2-1.7 2.7-.7 1.3 1 3-2.4 10.3-3.5 6.3-1.5 8.8-3.3 9-2.2 8.6-2.1 17.3-6.6 5.5-.3s4.4-.8 6.3-1.4c2.3-.9 6.2-3.1 6.2-3.1l1.8 1.3 8.2-3 6.4-.4 3.7.2 1.2-1h4.6s1.4.3 1.8.7c.3.4.3 1.6.3 1.6l.5 1.4-.1 1.2-1.6 1.2.9.1 5.8-2.1 2.7-.2 5.4 1.7 3.6 2.4 3.4.4c3.6-1.1 6.5-2.2 9.3-5a17 17 0 0 1 8.9-2h8.4v-5.2h8v1.8h-.6v4h5.3v-11.7h-5.3l-4.7-.1c-1.5-.1-3 .2-3.8-1.1-1.3-1.8-.7-3.3.3-5.3l.6-4-2.8-1.8-11.6-5 .2-.5 11.7 5c1-.3 2.3-.4 3.1.2-.4.8-.6 1-1.6 1l1.5.4 1.2-.4 6.1-15.5 3.5-4.3 1.6-1v-2.4l-1-.9.2-1.4s.5-.8.4-1c0-.7-.6-1.7-.6-1.7l.3-1.7c2-.2 3.3.4 5 1.4l2.3 1 3.4 2.7-.3.2c-.2.3-.3.3 0 .5l1.7 2c.4.4.4.3.8 0l1.2-1c.4-.4.5-.4.1-.8l-1.7-2c-.3-.2-.3-.3-.6 0l-.7.7-5-4.3c-2-1.3-4-3.3-6.5-3.5l-4.3-3.2-1.8-.3-5.4-3-12.3-4.6c-3.4 2.2-4.1 2.3-7.9.3-1-1.3-.6-1.6.1-3h2.4l.7-.7V127h-3c-2.1-2-4-8.5-5.9-13.2l-.8-.2-2.7-5.4-4-2.4-3.7-1.9-5.8-.9-.9-.8h-.8c-.7.4-.9 1-.3 1.5l1.1.2.6.8-.3.4-2.7-1.2-2.5-.3-1-.3h-1.3l-.7.3h-5.9c-1.6 1.2-3.8 2.6-4.8 4.4.3.4 1 .1 1.2.4 1 1 1.7 2 3.6 1.8-1 1.1-2.6 1.1-3.9-.5l-2 .9-1.8 1.3-.6 1-1.7 1.2-1.7 1.2.7 1.5c-.1 1-1.6.6-2 .3l-1-.7-1.3-.1-2.7 1h-4l-2.5-.6-2.2.2-2.3-.2-1.4-1.2-1.8-1.1-3.8-.3-2.2-1.2-2.7-2.5-4-2.2-2.4-1.5c-1.2-.7-1.7-1.1-2-2.5l-2-4.7-2.1-2.6-2.6-1.7h-1.3l-.4-2.8c.4 0 .7-.2.8-.3.3-.5.8-1.4.4-2.3-.4-.9-1.6-1.4-2-2l-1.3-1.2c-.5-.3-.5-.3-1.2-1.1-.6-.9-1.3-1-2-2-.8-.9-1-1.2-1.8-1.8l-2.8-2.3-1.2-.6-1-.7c-.7-.1-1.5-.9-1.6-1.3 0-.5 0-1-.4-1.3l-1.2-.4s-.5-.2-.7-.6c-.2-.5-.4-.7-.6-.8-.2-.1-.6-.7-1-.7h-.1c-.6.2-.9.2-1 .6l-.2.6h-.6l-.5-3-1.6-3.3-2.5-.1-2 .2-1.9.2-1 1.2-1.2-.2c-5.6.4-7.5 4.2-9.5 7.2l-.2.2-1.7-1 .6-.6.9-2c.2-.6.6-2 0-2.8-.4-.8-2.5-2.4-3-2.7l-8.1-4.5-1 1.5-.7-.3 1.1-1.6s-2.5-1.4-3.5-2.2c-1-.7-3-1.8-4.4-3-1.4-1-3.3-2-5.2-2.5H357c-1.7 0-3.8 1-4.4 1.3-.9.3-4.4 3-5 4-.3.5-.3.8-.1 1l-1.9 2c-1 .1-2.5 1.6-2.5 1.6l-1.6-.3h-.3l-6.7-4.8 1.6-1 .3-2 2.8-3c.6-1 0-2 0-3.1-2.2-3.1-3-3.4-4-4-.6-1.7-1.8-4-3.9-3.9-.6.2-1 .8-1 .8l-.8-.6 2.3-2.2s-.3-2.8-.8-4a10 10 0 0 0-1-1.6c-1.4-2.4-4-1.7-6.3 0l-2 .3-3.1-2.3.1-3.8.4-.4.6 3.5 1.4 1.5 1.8-.5L324 32l2.2-.4.1-2.9-1.2-2.3-1.9-1.7-5.2-2.3-1.1-1.7-7-4.5c-1.4-.9-4-2.2-4.9-.7l-2.9 5.4-1.2-.7 3.2-5.9-8.7-4.6-3.3 6.5-1.7-.9.9-1.5c-1.3-1.7-2.6-2-4-1.5l-2.6 3c-1 0-.8-.8-.5-1.6l5-4.3-2-1c-1.7-.8-3.4-1.5-6-1.5h-.6zM168 31.7l-1 .1c-.4.1-.9.2-1 .4l-.1.9c0 .4 0 .5-.2.8-.1.2-.5.1-.3.5s.6.3 1 .1l1.6-.5c.8-.3.6-.1 1.3-.6l1-.5.7-.3c.4-.2.4-.5 0-.6l-1.8-.2H168zm165.8 3.4h-.2c-.3 0-.6.2-.9.6l1.3.3 1.3 1.9 1 2.3-.1 2.3 1.7 1.7 1 1.6 2.1 2.8s.9 1 1.2.8c.2-.2 1.3-.9 1.5-1.5.2-.7-.4-1.3-.4-1.3l-2.7-4.5-1-1.7c-1.5-1.7-2.4-3.3-4.6-5-.3 0-.7-.3-1.1-.3h-.1zm224 9c-2.1.1-6.3 1.4-8 1.9l-9.7 2.5c-2.7 1.2-5 2.6-6.4 5.3h1l4.4-3.5 1.5 1 2.5.2c0-.6 3.2-.2 3.2-.2l4-1.8c1.6-.7 3-.3 4.6-1 1.8-.7 2.2.2 2.4 1.7.4 1.6 2 1.1 3.3.8l1.1-.4s1.3-.3 2.7-.3l1.8.1c.8.3 1 1.3 1.4 1.6 1.4.2 2.2.5 3.1 1 .6.3 2-.5 2.8-.1l1.7.6c1.4.6 1 1.4 2.3 1 .8-.2-.2-1.3-.5-1.6-.7-.7-1.8-.6-2.6-.8l-4.4-.5c-1-.3-2.3-.2-3.1-1.6-.9-1.4-.9-2.9-2.4-4.1-1.5-1.3-4.6-1.6-6.4-1.7h-.4zm-438.6 7-1.1.6s-.6.2-.3.7c.3.4.4.3.7.5.4.3.7 0 .7 0l.3-.7.1-.4zM579.4 55l-1 .2c-.3.1-.2.8-.2.8 0 .4-1.4 1.6-1.4 1.6-1 1.7-2.3 1.7-4 1.3-1.2-.2-3.2-1.8-3.6-1.4-.6.5-.1.5-.9.6-.7 0-.7-.2-1-.4-.5-.2-.7 0-1.1-.2l-1-.7-1-.8c-.2-.2-1.3-.5-1.3-.5s.2 1.6.1 1.9l-1.3 1.2-.4.8c-.2 1-.3 1.1-.8 1.6-.5.4-2 2-3.1 2.2-1.3.2-2.5 1-3.8.7l-2.7-.3h-2s-1-1.2-1.8-1.2c-.6 0-1.6.3-1.6 1.1l.1 5.1a10 10 0 0 0 1 3.3l1.3 1.9c.5 1.1.6 2.2.6 2.2v1.2l-.3 1.6c-.3-.1-.6-1-.6-1l-.5-.2-.5.2-1 .5-1.7-.2-.9-4-1.8-3.8-2.2-1.5-2.3-.7-2.5-3.2-1.6-2.4v-2l-1.6-1.9s-2.5-.9-3.4 0l-5.4 4.8s-1.8 3.2-1.3 5.4l3.5 11.7s1.4 2.8 4 2.8c2.7 0 8.5.5 8.5.5s2.8-.2 3.7-1.2c.8-1 1.2-2 2-2.7.9-.5 1.3-.8 2.6-.5 1.2.3 2 .7 1.5 1.4-.6.7-1 2.1-1.6 3-.7.8-.2 2 .2 2.4.3.4.5 0 .7.8l.4 1.5s-.2 1.7-1.2 2c-1 .5-4 1.8-6.5 1.7l-7.7-.4c-.5-.1-2 0-1.9 1.4 0 1.3 1 2.6 1.3 4.1.7 3.1 3 7 3.8 8 .8 1 6.4 7.2 8.1 8.9.2-.2 1.2-1 .7-1-2-.6-7-6.6-9.6-11.1-1.5-2.5-2.4-5.4-2.4-5.4l-1.1-4 .9.2 1 1.9 2.3 1.3 1.2-.5h1.8l.2 1.9 1.3 1.3 1.2.3.1-1-1.6-2.5 1.7-1.8.9.3 1 .3c2.8-1 5.7-1.8 6.9-4.4l3 .5 1.3.4 1 .9 1.9 2.6 1 2.6v2.7l2.2.2 1.2.9 2-.3 4.2.1s.7 1 2.3.3l7.3-3.4s1.1-.6 2-.4c.7.3 2.2.2 3.4.2 1.1 0 1.8-.1 2-.5.3-.3.7-1.2.7-1.2s1.3-.6 4.4-1.5c3-.8 7.2-2 8.2-2.8l4.7-3.4s.8-.8 1.8-1.3a41.6 41.6 0 0 1 9-2.3l1-.2.5 1.4s-.6.4-1 .3c-.3-.1-.6-.1-2.2.3-1.5.5-2.2.7-4 1-1.8.3-1.5.2-2.2.7-.7.6-.7.7-1.5 1a15 15 0 0 0-2.9 1.7c-.2.3-2.2 2.5-2.9 2.6-.6 0-4.7 1.6-6.3 2-1.5.5-2.8.2-3.8.9-1 .6-1 1.1-1.9 1.5-.8.3-.7.7-1.7.7s-1.5.2-2.3.5c-.8.2-1.7.2-2 .2s-.9-.4-.9-.4-.3-.5-.5-.2 0 .5-1 .5c-.8 0-1.3.6-1.6.8l-5 3.2s-1.3.7-1.8.4c-.4-.4-1.8-1-2.6-1.3-.5-.2-3 0-4.9.3v1l3.3 3.8 3.2 4.7-1.4 2.4 2.5.3 2 .9-.4.7 1.8 1v1.4l2 1.1 1.3 2.4-.9 1.5 2 .6.2-1.1 14.9-5.2 2.7-1 2.8-.6 1.9-2.5 3.2-.4 1.6-.6 1.6-1.2 1.9-.5.8-.3 1 .1 1.1-1.9.2-2.3-.7-.9.4-3.3.6-2.1 1.1-4 .4-3 1.4-4.5 1-2.3 2.4.5c4.4 3 1.7 11 .5 14l-.4 1.2s-.6 1.5-2 3.6c-2 2.7-5.9 6.6-8.5 15l-2 6.3c-.7 2.3-.8 4.7-1.4 7.1-.5 1.8-1.2 3.6-1.4 5.4-.2 1 0 2.2 0 3.3 0 1.3 0 2.7.3 4 .4 1.9 1.2 3.5 2 5.3a193 193 0 0 0 4.2 7.8l5.4 7.4.6 1.2-.2 1.5-1.3.9-1.5-.2-11.3-9.2-.5.6 11.4 9.2s1.4 1.5 3 .6c3.6-1.9-.5-6.8-3.4-11.1-2-2.9-3.3-5.7-4.4-7.4-.9-1.3-2.7-5.2-3.2-9.4-.2-1.3-.2-3.2 0-4.4 1-4.6 4.2-21 7.2-25.3 2.5-3.7 8-10.7 9.6-17.6.8-3.3.8-7.5-1.4-9.6-1-.7-1.3-1-2-1.3-.6-.3-1.3.8-1.8-.3-.6-1.1-.4-1 .1-1.5.6-.6 1.6-1.6 1.4-2.3-.1-.7-1.5-3.5-2-4.7-.6-1.3-1.2-1.8-1.8-3.1-.6-1.4-1.8-3.2-3.2-3.8-1.4-.5-1.9-1.4-3.2-2-1.2-.5-1.2-1.3-2.6-2.4-1.4-1.1-2-1.9-3-2.5-1-.5-.6-.8-2.1-1.3-1.6-.6-1-.7-3-1.4-2.2-.7-3.1-1.3-4.4-2-1.2-.7-2-1-3.2-1-1.1-.2-1.3-.5-2.2-1.2-1-.6-.7-.2-1.8-.8-1.1-.5-1.4-.6-2.7-.5zm-463 3h.3l.4.4s0 .4.4.6c.4.2.7.2.9.2l.5-.5.6-.3s0-.6.4-.3.3.3.6.7c.3.4 1 .7 1 .7s.2 0 .2.5c0 .4.2.5.6.4.4 0 .8-.5.8-.5s0-.2.5-.2.6-.2.7.3c0 .5.3.6.5.7l.2.2 1-.3.6-.3 1-.5s.3-.6.5-.3c.3.2.8.6.6 1-.2.4-1.1.6-1.1.6s-.8.5-.8.8c0 .3.8 1 1 1.2.3 0 .1.3.8.4.7.2.9.1 1 .4.2.3.8.7.6 1.2-.2.5-1 1-1 1s-.5.8-.7.4c-.2-.4-.3-1.2-.6-1.3l-.8-.2-.3-.8-.8-.7s-.4-.6-.4-.1c0 .4-.2.6 0 .9.2.3.6.5.2.7-.5.2-.9 0-.9 0l-.7-1.3-.7-.8-.9-.3c-.3 0-.6 0-1-.2l-.9-.5-.7-.2s-.5-.1-.6.1c-.1.3-.4.3-.4.7 0 .4-.3.5 0 1 .3.4.3.4.4 1 0 .4-.6.4-.4.9l.8 1.3c.4.6 0 .4 0 1-.1.7-.7.7-.7.7l-.7-1-.3-.8-.4-1.1v-.7c0-.3-.4-1-.8-.7l-1.1.8.6.8s.2 0 .2.7c0 .8-.3 0 0 .8.4.6.2 1 .7 1.1.5.2 1 1 1 1s.7.4.1.6c-.5.2-1.4.2-1.4.2s-.2-.8-.5-1c-.2 0-.6-.2-.9-.6-.3-.4-1-.6-1-.6l-1.1.2-.9-.2-.2-1c-.1-.4-1-.9-1.2-1.2-.2-.3-.2-.5-.5-.5l-1-.1s-.8-.6-.8-.9v-.7s-.2-.4.1-.7l.4-.3s.6.3.9.1c.3-.2.3-.6.3-.6v-.6s.5-.2 1 .3c.3.6.7.8 1 1.4.3.6.3.6 1 .6.7-.1 1.3-1 1.3-1l.6-.5s.4-.7.2-1.1l-.6-.7-.6-.3s-.5-.2-.5-.5.2-.3.5-.4l1.2-.6.5-.6h.1zM427.2 60l-.6 1.8-2.3.1-2.5 2.2-3.5 2 1.8 2.7.9-.3s.2.1 1.2 1.7c1 1.5 1.4 1.5 1.9 2 .4.6.2.6 1.2.9 1 .3 1.4 0 2.2.6.7.6 2.2 1.2 3 1.7l2.5 1 1.6.7 1.7 1.6 2.8.9 3.3 1.3c.5.2 1.5 1.1 1.5 1.1l2.2.4c-.2 3 1.6 3.2 2.7 4.4l2.2.1s1 .5 1.9.8c1 .3.8.4 1.2 1.5s1.9 2.3 2.7 3.5c.8 1.2 1.4 1.5 1.4 1.5l.8.6c1.2.4 2.2 0 3.3-.4 1-.2 3.4-.7 4-1 .8-.2 1-.3 1.7-.3s1.6 0 2.3-.4c.8-.4 1.6-1.2 2-1.3.3 0 .5.3 1.7.2 1.3-.2 3.6-2 3.6-2s1.7-.8-.3-2.6c-.3-.3 3.7-1 3.3-1.4 1-.2 1.3-1 2.3-1 .9-.1 2.5 1.2 3.4 1.3.6 0 1.6-1 2.1-1 .9 0 1 1 1.9 1 1.1 0 2.1-1.4 3.3-2 .4-.3 2.7.4 4.2.7 1.2.1 1.8-.2 1.9-.8l-.4-.9c-.5-.7-1.1-1.4-.9-1.7l.7-4 1-.8-1.4-3-2-1.4c-.4-.3-.8-.2-2.5-.2-1.8 0-1.7-1.4-2.4-.7-.6.6-1.5.8-2 1l-2 .4c-.5 0-.6-.5-1.4-.2a8 8 0 0 1-2.5.3c-.7 0-.8 0-2-.3-1-.3-1-.5-1.8-.5h-1.7s-.3-.4-1-.4c-.6-.1-1.7-1.6-3.5-1.4-1.9.2-2.6 0-3.2.3l-2.3.5c-.9 0-1.6 0-2.2.3-.6.2-1 0-1.3.4-.4.4-.5.6-1 .6h-1.8c-.5 0-.7.3-2 .3H457l-1.8-.4s.2-.6-.4-1.1c-.4-.3-2-.7-2.4-.8-.4-.1-.6 1-.9 1-1.6-.5-3-1-3.1-1.3-.2-.5-1.9-.2-2-.8-.2-.7.8-1.7.1-2l-9-3.6-3-1.3c-1.1-.5-1.7-1.3-3-1.4-1.3-.1-2.4-.5-2.4-.5zm-93.7.7 7 5 .1.3-1-.2c-.5.6-.7 1.2-.4 1.8 0 0-2.2 3.1-2.2 3.3l-.2 1.1-.1.7-1.2.6-1.6 2.4-3.7 3.2-.8.1-3.9 4-1.2 2-6.4 5s-1.3.2-1 1.2c.2 1 .5 1.6.5 1.6s.2.8-.3 1a1 1 0 0 1-1-.1c-.4-.3-.8-.3-1.2-.3-.4 0-1 0-.9-.6.1-.5 0-1.2-.5-1.2s-1 1.2-1 1.4c0 .2-.3 1.4-.8 2.2-.5.7-1.3 1.5-1.7 1.5-.3.1.8 1.8.8 1.8l-.6.2-1-1.7h-2.4l-2.6 3.5-.3-.3 2.4-3.4s-2.2-.7-2.5-1.6l-2.3 3.5 2.3-5 .6-.1c.4-.2.6-.2.6-1-.1-.6-.4-.7-.8-.8-.5-.2-.8.3-1-.3l-.1-1c0-.4-.2-.7.2-1.2s.4-.7 1-1.2c.7-.5.6-.2 1.3-.6.6-.4.8-.8.4-1.2-.5-.4-1.6-.5-2.7-.3-1 .2-3.9 1.1-4.3 1.7-.4.6-.7 1.3-.7 1.8s-.4 1-.4 1l-1.6.6s0-2 0-2.8c.2-.8.5-.7 1-1.6.5-1 .6-.9.6-1.6v-1.7c0-.2.5-.6.8-.8.4-.2.7-.1 1.4-.1s.4.3 1.5-.3c1-.6 1.6-1.4 1.6-1.4l1.3-.3s0 1.4 1.3 1.4c1.3.1 3.4.2 4.4.7 1 .4 2 .6 2.5 1.4.6.7 1 1 1.9.6 1-.2 2.4-.7 3.6-1.4 1.3-.6 3.3-2 3.5-2.4.3-.5.6-.7.5-1.3 0-.7.2-1 .2-1s.6-1.3 1.8-2c1.2-.8 1.5-1.7 1.5-2.1v-1.1l1.6-2.4a4 4 0 0 1 1.1-1.1c.6-.4 1.3-.8 1.4-1 0-.2.4-.4.9-1.2.5-.8.6-.5.5-1.4 0-1-.6-.2-.1-1s1.1-2.7 1.1-2.7l.5-1 .7-.4zm14.3 1 .7.7c.6.8 1.6.9 2.3 1.3.6.3 1.6 1 2.2 1.6l3.5 3.6c.2.2 3.8 2.5 4.9 3 1 .4 3 .2 3 .2l5.3-7.6.6.4-4.9 7.3s2.5.3 3.2.8c.6.6 1.6 1.6 3.6 2 2 .3 2.9.6 4 .6l3.4.2h.9l2.3 1.3-1.6 3.4-.3-.3-1.2 2.2c-.6.4-1 .9-1 .9l-1.3 1.4c-1 1.2-2.2 2.5-3.7 3-1.4.3-2.4 1.6-3 2.8-.6 1-.5 1-.6 2 0 1 0 1.2-.3 1.9l-.8 2.2-.7 2c0 .6-.3 1.2-1 2-.7.7-1 .7-1.6 1.1s-.9.7-1.4 1l-.7.4-.3 4c0 .3 0 1-.4 1.2l-1.1.6-.8-.1s.9-.5 1-1a9 9 0 0 0 .2-2.7c0-1-.8-1.2-.2-2.3.6-1.1 1-1.1 1.6-1.6.5-.5 2.6-.4 2.9-2.1.2-1.7.2-1 .6-2.6s.8-1 .8-2.4l.2-2.9c.2-.7.6-2.1 1.4-2.8.7-.7 2.9-1.4 3.8-1.9.4-.2 3.5-3.6 5.2-5.3 1.3-1.2 1.4-2 .3-3.3l-2.1-1-3.7-.3-6-3-2.7-.4-1.5.7-.5 1.5-4-2-3.7-3.3-.6-2.4-2.7-3.1-2.8-1.1s-1.1-.4-2-.5zM122 63.2l.2.3V65s-.2.6-.6.6c-.3 0-.2-.4-.3-.6l.1-.7s.3-.1.3-.3v-.4zm442.7 2c.2 0 .3.1.4.4 0 .5.3.6 0 1.2 0 .5-.3.4-.5 1.1-.1.8-.3.5-.1 1.2.2.7 0 .8.5 1.1.4.4.4.4.7.4.3-.1.6.3.6-.5s.2-1 .3-.8c.2.3.1.4.6.8.5.3.4.4 1 .1.6-.2 1-.5 1.5-.2.4.2.3.3 1.1.5h1.2l.7.1c.2.4.4.6 0 .7-.4.1-.9-.2-1 .2 0 .3 0 .7-.3.7-.2 0 0-.2-.4-.2-.5 0-.8 0-.9.4-.1.2.2.1-.2.5-.4.3-.5.4-.8.3-.3-.1.2-.4-.7-.4-1 0-1.2-.2-1.5.2-.4.4-.6.5-.6 1v1.1c0 .4 0 .6-.4.9-.5.3-.7 0-.7.6 0 .5-.2.7.3 1.2l1.8 1.4c.3.3.3.5 1 .5h1.6c.5 0 .6-.3.8.2l.2.9c0 .2.2.6-.2.6s-.6-.3-.9-.2c-.3 0-.3 0-.5.2l-.2.4c-.2.3-.7.1-.7.1l-.5-.7c-.2-.1-.5-.6-1.1-.4-.6.2-1 .2-1.1.4l-.5.4c0 .2-.3.3-.3.1V81c0-.1-.1-.5-.3-.6l-.6-.5c-.2-.2-.2-.5-.6-.3-.5.2-.6.2-.7.5-.2.3 0 .7-.6.7-.5 0-.7 0-.8-.2-.2-.3-.2-.5-.6-.4-.4 0-.5.2-.8-.2l-.7-.8s0-.2-.4-.4c-.4-.3-.7-.1-.6-.6.1-.5.3-.4.5-.8v-2.9c.2-.7-.2-.8-.3-1.4v-2.3l.1-.5c.2 0 .3-.4.3.1s.3.7.6 1l.5 1c.1.4.3 0 .3 1 0 .9-.4.9 0 1 .4.2.6 0 .9-.2l.6-.6c.2-.1.2-.3.2-.6 0-.4 0-.9.3-.9s.5 0 .6.4c.1.4.3.4.5.6.3.2.2.5.5.4.3-.2.3-.2.2-.8-.2-.6-.5-.6-.5-1.1v-1c0-.3-.1-.8-.3-1-.2-.3-.3-.7-.5-.7-.2-.1-.4-.3-.3-.5 0-.1.3-.2.7-.1.3 0 .7 0 .9-.3.1-.3.2-.3.2-.7 0-.4.2-.7.1-1 0-.4-.2-.6 0-.7l.4-.1zm-160.4 9.5.8 1.4c.3.6.7.7.7 1.7s-.1 1.7.4 2.6c.5 1 1.4 2.5 2.2 3.2.8.7.6.8 1.8 1.3 1.2.4 1 0 1.8.9.7.9.6.4 1.2.9s1 1.3 1 1.3l.9.6c.3.4.5 1.1 1.4 1.1h2c.7 0 .7-.8 1.6.4.9 1.2.3 1.6 1.3 2l1 .2.4 2.9h-.7l-3.3 1-4.5 2.6-1.4-1.3 4.1-2.5c.7-.4 1-.4.6-1.1-.2-.5-.6-1-1.4-.9l-.1-2.8-4.8-2.2-3.8-3.7-.8-.4-2.5-5.4-.6-3.7zm-141.6.3.4.2c.4.3.8 0 .6.7-.2.7-.5.8-.2 1.4.2.5.5 1.1.7 1.1.1 0 .2-.1.4.1.3.3.7.2.3.6-.5.3-.8.2-.9.5V81c0 .6 0 .6.2 1 .3.4.3.5.7.4.4 0 .8-.3.8-.3s.1-.5.3.2c.2.8.4.7.7.9.3.1.4 0 .5.3l.3 1c.1.7 0 .7.3 1l.5.7.2.5v.3c0 1-.1 1.2.3 1.5.5.3 0 .2.5.3.4 0 1.2.3 1 .8 0 .4-1.7 3.1-1.7 3.3 0 .3-.3.6-.6 1.1-.4.4-1.3.7-1.3 1s0 .3-.2.9c-.3.5-.8.3-1 .7-.3.5-.6.6-1 1.3-.3.7-.6.5-.6.9-.1.5.5.3-.1.5-.7.1-.7-.3-1.2.2l-1 .8c-.3.3-.2.3-.3.7-.2.3.2.2-.2.3-.4.2-1.9.2-1.9.2s-.3.2-.5 0l-.5-.8c-.3-.4-.2-.8-.8-.6-.5.3-.8.4-1 .7l-.8.7c-.6.5-1 .8-1 1-.2.3-1 2.1-1.1 2.9-.3.7-.5 1-.5 1.4s-.3.5 0 1.1l.6 1.5.4 1s.3 0 .3.4-.5.4-.6.6v.9c0 .2.3 0 0 .2-.5.2-.9 0-.8-.4v-1.3a4 4 0 0 0-.3-1.6l-.4-1s0-.3-.4-.3-1.2.2-1-.3c.1-.5.2-.6.6-1 .3-.4.4-.3.7-1 .3-.5.4-.2.5-1.4.1-1.2.3-1.7 0-2.1-.2-.4-.1-.9.2-1.4s.6-.2.7-.8c0-.6 0-1.6-.6-1.3-.6.2-1.1.2-1.2.5l-.4.6c0 .2 0 .9-.7.6-.8-.3-1.1-.4-1.5-.4-.5 0-.6 0-1 .2-.5.3-.8.5-1 .9v.9c0 .3.2.6-.2.6s0-.3-.6-.6-.6-.8-1.4-.4c-.8.4-1 .7-1.4 1-.4.3-.4.2-.6.7-.1.5-.3.5-.1 1 .2.4.6.3.5.9 0 .6 0 .6-.4 1.3-.3.8-.6 1-.3 1.5s.7.1.5 1c-.2 1-.3.5-.5 1.2-.1.8-.3.7 0 1.3s-.2.8.5 1.3.8-.2.8.4c0 .6-.4 1.6-.8 1.2a3 3 0 0 1-.9-1.4c-.1-.5-.4-1.2-.4-1.9v-2.2a6 6 0 0 0-.3-1.7c-.2-.4-.5-1-1-1-.4-.1-.8-.4-1.2.1l-.7 1.4-.7 2-.3 1.2c.1.2.3.6 0 .8-.4.2-.8.6-.8.8v1.9c0 .4.7.1 0 .4s-1 .4-1-.2c0-.6-.2-1 0-1.5l.3-1.2c0-.2-.3-.4-.2-1s.2-1.2.5-1.5c.4-.3.5-.7.3-1.4s0-.6-1-1c-1-.5-1.5-.7-1.7-.6-.3 0-.3.2-.7.4-.3.1-.5.3-.9 0-.3-.2-.3-.7-.6-.5l-.6.4c-.3 0-.8 0-.7-.4 0-.3.4-.5.6-.6s0 0 .8 0c.7 0 .9.5 1.1 0s-.4-.6.3-.4l2 .4c.5 0 .8-.7 1.7-1.1l1.5-.8c.7-.5.8-.3 1-1 .2-.6.2-1.1-.3-1.3-.4-.1-.8-.3-1.2-.1-.4.1-.3.4-.8.3-.5-.2-.9-.3-1.5-.3h-1c-.2.1.5.3-.6.4l-1.6.4-.8.1-.7.1c-.3 0-.7.3-1 .2-.3-.1-.4-.8-.4-.8s.8 0 1.4-.4c.7-.3.6-.4 1.2-.5.6 0 .6-.4 1-.5s.1-.2.8-.2c.6 0 .8 0 .8-.3 0-.2-.6 0 0-.2s-.1.2.8.2c.8 0 .9.2 1.3 0 .3-.1-.5-.2.9-.1h1.4c1.1 0 1.1 0 1.4-.2.3-.2.4-.6.4-.8 0-.2-.5-.7-.5-.7l.4-.4.7.5s-.4.3.5.3c.8 0 1.3-.4 1-.7-.4-.2-.8-.7-.8-.7l-.5-.5-.8-.7-.6-.6-1-.4h-1c-.2-.1-.5 0-.5-.4 0-.3.2-.5.4-.5l.8.2c.4 0 .4.1.6-.1.2-.3.2-.6.5-.5.2 0 .2 0 .3.3.2.2-.2.2.4.3.6.1.2.3.6.1.5-.2 0-.4.4-.2.5.2.3.2.6.5l.4.5.5.4c.3 0 .2-.4.5 0 .4.3.4.1.6.5l.4.9c.1.4.3.6.5.8l.7.1s.4.3.6-.1c.2-.5 0-.7-.2-.9l-.6-.4c0-.2-.4-.3-.1-.6l.6-.2 1 .2c.4.2 0 .5.6.4.6 0 1 .2 1.3-.2.3-.3.2-.4.3-.9v-1.2c0-.3-.3-.4-.5-1-.2-.5 0-.8-.4-.9-.3-.2-.7-.7-1-.7s-.7-.1-.5-.3c.3-.2.6-.2.9 0 .3 0 .5.3 1 .4.4 0 .8.4 1 .7l.6.8c.2.5.3.2.4.8.1.5 0 .6.3.8.3.2.5.3.8.2.3 0 .4-.5.4-.5l.4-.4s.4-.3.7 0c.2.3.2.4.5.4s.5.2.7-.1c.1-.4.3-.6.2-.9l.1-.8.8-.7.6-.6s.4-.2 0-.5c-.5-.3-.9-.6-1.1-.3-.3.2-.3.4-.7.5-.5.2-.2.2-.7.5-.5.2-.5.5-.8.2-.3-.3-.7-.6-.5-.9.2-.3.6-.4.8-.6.2-.3.7-.1.7-.8 0-.6-.5-1.2-.6-1.3-.2 0-1 .2-1.2-.1-.3-.3-1.3-.6-1.5-.4-.1.2-.5.2-.7.5-.2.2-.3.4-.2.8 0 .3.2.6-.1.5-.3 0-.4-.5-.7-.7-.2-.2-.4-.2-.6-.2s-.4.5-.6 0c-.3-.4 0-.8 0-.8s0-.4.5-.4.7.3 1-.2c.2-.6.4-.3.5-.6 0-.4-.2-.6-.5-.6h-2c-.4 0-.6-.4-1.1-.2-.6.2-.7.8-.9.8-.2 0-.3.2-.3.5 0 .2.4.2 0 .5-.4.4-.4.6-.6.3l-.4-.6h-.6l-.5.5-.5.5v.7c0 .5.2.3 0 .5-.1.3-.4.4-.5.3l-.1-.8a2 2 0 0 0-.3-.9l-.8-.7-.6-.3c-.1-.2-.5 0-.3-.5.1-.6.6-.5.9-.5h1.5c.2 0 .2.4.8 0 .7-.3 1-.7 1-1 .1-.1.2-.4 0-.5-.2-.2-.4-.8-.2-1 .1-.3.3-.3.5-.5.2-.1.3 0 .3-.4s-.1-.6.3-.6c.5-.1 1.1 0 1.3.1l.5.6c.3.4.5.6.8.5.3-.2.4 0 .4-.6v-.8c-.1-.6-.3-.5-.3-.8 0-.4 0-.5.3-.6.3 0 .4-.2.6.4.2.6-.1.7.4.9.6.2 1 .2 1.1 0 .2-.2.4-.5.4-.8v-.8c-.1-.2-.5-.4-.2-.6.4-.2.4-.5.6-.1.1.3.3.5.4.4 0-.2 0-.4.4-.4.3 0 .6-.1.5.4-.1.5-.5.3-.5.8v.8c0 .4-.4.1 0 .4.5.2.7.4.9.3.1 0 .5-.3.4.1 0 .4-.2.1-.4.6-.2.4-.4.1-.3.8.2.6 0 .7.5 1.3.5.6.6.6 1 .9.6.2 0 .2.9.2s1 .2 1.3-.2l.5-1c.1-.2.4-.2.8-.5.3-.3.4-.2.5-.5l.4-.5c.2 0 .3-.4.5 0 .1.6.2.7 0 1-.3.4-.3.3-.4.8v.2l-.1.3c-.4.9-.2.9-.4.9-.1 0-.2.3 0 .6.2.4.4.5.7.4.3 0 .7.2 1-.4.1-.6 0-.2.3-.6.2-.4.2-.7.5-.7s.3-.2.3.7c0 .9-.3 1.4.4 1.7.6.3 1 .3 1.5 0 .4-.4.6-.2.7-1 .2-.7.2-.6.2-1.3 0-.7-.3-1-.5-1.2-.3-.2-.3-.7-1-.9-.8-.1-1.2 0-1-.4 0-.5 0-.4.3-.6.3-.2.4-.3.4-.8 0-.6 0-.9-.2-1-.3 0-.7-.3-.5-.7.2-.3.8-.4.8-.6 0-.1 0-.5.3-.8.3-.3.4-.1.5-.7V77c-.1-.4-.3-.5-.5-.7-.3-.1-.7-.2-.6-.5 0-.3.1-.3.4-.4l.5-.2h.2zM111 81.3h.2c.8.2 1 1.3 1.2 2 .2.8.1 1.6 1 2 .4.2.7.4 1.1.2.3-.2.7-.6 1-.6.7 0 1 1.2 1 1.8.2.9-.6 1.7-1.6 1.3-.5-.2-.6-.6-1.1-.3-.4.3-.6.6-.7 1-.1.1 0 .3-.3.4-.2.2-.6 0-.8.1-.3.3-.1.8 0 1.1 0 1-1 1.6-1.7.8-.2-.2-.5-.8-1-.5-.1.2.1.4-.2.6-.3 0-.7-.2-.8-.4 0 0-.4 1.6-.2 1.9.1.4.5.8 1 .5.2-.2.4-.7.8-.6.4.1.5.7.6 1l.7.7.3 1.2c0 .3.3.9.2 1.1-.2.3-.8 0-1 .2-.3.2-.4.7-.3 1 .1.3 1.5 1.7.6 2-.4 0-1.4-.8-1.8-1-.7-.2-1.5 0-1.4 1 0 .9 1.2.3 1.3 1.1.2.6-.4.6-.5 1-.4.8.2 1.3.8 1.4.4.1.5.2.8.6.3.4 1 1.2.8 1.7-.1.4-.5.5-.9.5-.5 0-.5-.2-.8-.5-.6-.7-1-1-1.6-.3-.3.4-1.3 1.1-1.7.4-.3-.8 1-1.2 1-2 0-.7-.4-1-1-1.4-.4-.3-.4-.3-.5-.9 0-.3 0-.8-.4-1-.3-.1-.6 0-.8.3-.2.7 0 1.4-.1 2-.1.6-.5.5-.9.6-.4 0-.5 0-.9.4-.1.1-.6.4-.6.7-.1.4.3.3.4.7 0 .4-.6.6-1 .5-.4-.1-.3-.5-.4-1-.1-.5-.9-.9-.2-1.4l.9-.6.6-.6c.4-.5.6-1 .3-1.7-.2-.4-.9-1-.5-1.5l.7.1c.3.1.4.4.7.2.6-.4 0-1-.3-1.2v-.7l.3-.5-.1-.7c-.3-.5-.7-.5-1.2-.3l-.7.7c-.2.3 0 .6-.3 1-.7.8-1-.9-.9-1.4.2-.7 1-.8 1.2-1.5.1-.3.1-.9-.3-1-.4-.2-.5.6-.9.3s.1-.7.2-1c.1-.3 0-.8-.1-1-.3-.4-.8-.4-1-.6-.3-.3 0-.7-.2-1-.2-.7-1.2-.3-1-1.3 0-.5.5-.8.8-1 .7-.6 1.2-1.3 1.9-1.7.3-.2.1.1.7-.6s.5-1.1.5-1.3l.5-.7.7-.6c.2-.2.4-.6 1.2-.4 1 .2.9.6 1.4 1.4.1.3.5.6.8.8l1.2.5.8.7c.8.4 2-.2 2.4-.8.6-.6.3-1.6 0-2.3-.2-.4-.7-1.6 0-1.6zM442 84.6h-.1c-.2.2-.2.4 0 .7l.7.9.9.7c.4.4.6.6.7 1 0 .5.5.7 1 1.1l1.8 2c.3.4 1.3 1 1.9 1.6.5.6.8 1.1 1.7 1.6.9.5.5.7.9 1 .4.2.7-.2 1-.6.3-.3.1-.6.1-1l-.3-1.6c0-.7-.2-.9-.7-1.5-.5-.6-1-.3-1.8-.6s-2-.8-2.7-1.4-.7-.6-.8-1.2c-.2-.6-.4-.8-.9-1.5s-.7-.4-1.3-.7l-1.4-.4h-.7zm52.8 2.6h-.4v.4l.3.6v.6l-.6.5v.3l.2.1h.7l.4-.3h.6l.1-.2.1-.3h.1l.3-.2.2-.4-1.5.1-.2-.2-.3-.5v-.5zM94.2 89.8l.6.2h.7c.3 0 .4.1.4.5v1.7c0 .7.5.3.6.7 0 .3 0 .7-.3 1-.3.5-.5.4-.9.4-.3 0-.3-.2-.4-.3-.1-.2-.4-.3-.7-.2-.4 0-.2.4-.4.5-.3 0-.5-.1-.7-.3-.2-.2-.2-.3-.2-.5-.1-.2.2-.7.2-1.3l.3-1 .2-.9c0-.2.3-.3.6-.5zm19.4 1.5c.3 0 .5.6.5 1 0 .3 0 .9.4 1.1.5.4.8-.2.9-.6 0-.2 0-.4.3-.5.3 0 .4.3.6.3.2-.4.5-.2.7.1.2.6-.2.4-.4.8s.2.6.3 1l-.5.9c-.5.2-.5-.2-.9-.3-.3 0-.8.3-1 .5l-.4 1.5c-.1.4-.3.5-.8.4-.4 0-.7-.3-.8-.8-.3-.6-.7-1-.8-1.6-.2-.6-.4-1.2-.2-1.8.3-.5.9-.8 1.2-1.2h.1c0-.3.3-.5.6-.5h-.2c.1-.2.2-.3.4-.3zM89 95.6l-.1.2-.6 1.8c-.2.3.2.6.2.6h.6s1.2-.8.7-1.7c-.3-.6-.5-.9-.7-.9zM413 98.4l1 1a47 47 0 0 1-3.4 3.3c-.3.4-2 2.6-2.5 3-.6.4-.8 1.3-1.3 2.2-.5 1-.1.4-.6 1.6s-1.2 2.4-1.7 3.1c-.5.7-1.3 1.5-2.4 1.5-1-.1-3.9-.8-5.1-.6-1.3.1-2.8.5-3.5 1.5a4 4 0 0 0-.7 3.4c.4 1.5 1 3.3.6 4.7-.5 1.4-1.2 3.3-2 4.2-.9 1-2 2-2.6 3s-1.5 2.7-1.7 3.4l-.9 2.2c-.3.5-4.8 4.2-4.8 4.2l-.4 1.7-.4.1V140l3.3-3s.7-.4 1.5-2.7c.8-2.2 2.3-4.7 3-5.4l2.3-2.5c.4-.6 1-1.5 1-2.5l-.3-4.4c-.2-1.5-.4-4.1.5-5 .9-1 2.2-2.6 4.7-2.5 2.5 0 4.4.4 5 .3.5-.2 1.8-.5 2.2-1.6.5-1.2 1.6-4 2-4.5.3-.7 3-3.6 3-3.6l2.3-2.6 1.4-1.1.5-.5zm-296 .8c.2 0 .5 0 .6.3.2.3 0 .6 0 1l.4.6c.2.5-.1.6-.3 1-.1.4.1.8-.2 1.2h-1.7c-.7 0-.6.3-1.2.5-.6.3-.7-.2-.9-.6-.2-.7-.3-.9 0-1.5.2-.5 0-.9 0-1.3.1-.5.5-1.3 1-.7.3.4-.3 1.3.4 1.5.4 0 1-.5 1.2-.8.2-.3 0-1 .4-1.1l.2-.1zm3.6 2.3c.8.2 0 1.2 0 1.5 0 .3.3.4.4.6.2.3 0 .5-.2.7-.2.3-.4.5-.7.3-.3-.1-.3-.4-.7-.4-.6 0-1.5.1-1-.8l.2-.7c0-.3.1-.6.3-.8h1.3s.2-.4.4-.4zm-8.9.4c.5 0 .8 1 1 1.2l.6.2c.4.3 1 1.3.5 1.7-.4.4-1.7.7-2 .3l-.6-1c-.2-.3-.1-.7 0-1.1l.1-1.2.4-.1zm431.8 1-.3.4c-.3.3-.3.6 0 .8l.2.4s0 .3.2.4l.2.3-.2.2-.2.3-.3.3a2 2 0 0 0-.5.6c0 .2-.2.4-.3.5-.3.2-.4.6-.1.8l.1.2.2.4.3.4c0 .2.4.6.6.5.1-.1.6 0 .6.2v.3c.2.1.7 0 1-.2.4-.3.5-.3.5-.8s0-.6-.4-1l-.6-.2-.3-.2c0-.3.1-.6.6-.9.5-.2.9-.8.9-1.3 0-.4-.8-1.5-1.2-1.7-.2 0-.5-.2-.6-.4l-.4-.2zM99.3 114.3c.4 0 .7 0 1 .3.2.2.3.5.6.5l.8-.2c1-.1 2.6-.3 3.1.8.4 1 .1 2.5.2 3.5.1 1.3.2 2.3-.6 3.3-.3.4-.4 1-.8 1.2-.3.4-.8.6-1.2 1-.3.3-1 .4-1.1.8-.4.6.3.9.7 1.1 1 .6 1.9.9 2.3 2 .1.2.3.3.3.6 0 .4-.3.4-.4.7-.2.7.4.8 1 .7.8 0 1 0 1 1-.2.6-.5.7-.5 1.3 0 1 .5 2.4-.5 3-.5.4-1 .3-1.6.4-.6.2-1 .5-1.5.2-.3-.2-.8-.6-1-1-.2-.2-.3-.4-.3-.7l.3-.6c0-1.2-1.6-.4-1.6-1.4-.7-.5.6-.7.8-.9.6-.4.3-.8.1-1.3-.1-.4 0-1.2-.3-1.6-.4-.4-1.2 0-1.7-.2-.4-.2-.8-.8-1.4-1h-1.9c-.5 0-1 0-1.6-.2-.6-.2-.8-.1-1.4.2-.4.1-.7.2-1.1.5-.2.1-.4.5-.7.6-.8.4-1.9.1-2.7.3a6 6 0 0 1-1.9.2c-.5 0-1.2.2-1.4 0-.2-.2-.4-1.2-1-.8-.6.4-.7.4-1 1-.2.5-.7.5-.7 1s.2.6-.1 1c-.4.5-.4.8-.8 1.2l-1 .8c-.4.4-1 .4-.8 1.3.2.8.4 1.2.7 1.6l1 1.1c.5.6 1 0 .8 1-.1 1.2-.2 1.2 0 1.7 0 .5-.1 1 .3 1.4.4.4 1.1.4 1.4.4h1.4c.3 0 .5-.2.9 0s.9.1.6.7c-.3.7-.1.7-1 1-1 .4-1.8.2-2.1.7-.3.5-.5.4-.2 1.1l.7 1c.3.2.7.5.2.8-.6.4-1 .6-1.5.4-.5-.1-.5-.3-.9-.5-.4-.1-.4-.4-.8 0-.4.5-.8.4-.5.9.3.5.4.2.4.7 0 .6-.7.1 0 .6.8.5.6.7.4.9l-.9 1.7s-.5.6-.7.3c-.1-.3 0-.8-.2-1.2l-.1-.8-.4-.8.4-1.2.6-.8s.3-.5 0-.7c-.3-.2 0-.5.2-.7 0-.3.2-.6 0-.8l-.6-.3-.6.2s-.4.2-.5 0l-.3-.7c-.2-.2-.3-.3-.5-.3-.1 0-.4 0-.4.4 0 .3-.1.5.2.8l.5.5.2.6v.8l-.5.9-.5.5c-.4.2-.4.7-.7.4a3 3 0 0 1-.6-.7c-.2-.3-.4-.4-.3-.9s.5-.6.5-.6l.5-.5c.3-.2.3-.7.3-.7l-.1-.5.2-.9c.2-.5.2-.8.5-1l.7-.8c.2-.2.6 0 .9-.5.2-.3.4-.2.4-.7 0-.5-.2-.5-.4-.6-.2 0-.3-.2-.8 0l-1 .5-.8.3-.7.3c-.2.1.2 0-.4.3s-.4.2-.7 0l-.7-.3s0-.4-.4-.2c-.4.3-.5.3-.7.7-.3.3 0 .2-.5.5s-.4.3-.8.3-.4.2-.7.1c-.3 0-.6-.4-.7 0 0 .4 0 .5.3.9.2.4.3.5.2 1 0 .5-.2.6 0 1l.4.6c.1.3.3.4 0 .7l-.8.4c-.3 0-.3.3-.6 0l-.5-.6c-.3-.3-1-.5-1.1-.3-.3.2-.7.2-.8.5l-.6.3-.8.1c-.2.1-.4.3-.4.5 0 .3 1.6 2.7 1.6 2.7l.8 1.6c.2.5.4 1 .6 1l.7.4c.2.2.3.4.3.7 0 .3-.3.5-.1.7l8.5 7 1.7 1.8c.3.4.3.4.3.8l.2 2.6c0 .7-.2.7.2 1.2.3.5.2.7.6 1 .4.5.5.5 1.1.2.6-.3.8-.3 1-.6.2-.2.3-.6.7-.4.4.1.7.3 1 .6l.6.6c.3.3.5.3.3.7-.2.4-.2.4-.5.6-.3.3-.6.1-.9.4-.3.3-.4.2-.5.5l-.1.6c0 .2-.1.2-.4.2-.2 0-.6-.3-.9 0l-.8.7c-.3.3-.5.6-.9.4-.3-.2-1-.7-1.6-.8-.5-.1-.9-.4-1-.5-.2-.1-.6-.2-.7-.7v-.9c0-.4-.2-.8-.4-1s-.5 0-.8-.5c-.2-.4-.4-.5-.4-1s.1-1 .3-1.4c.2-.4.1-.3.5-.6l.7-.7c.1-.2.2-.6 0-.9-.1-.3-.6-.5-1-.5h-3.9s-.5.2-1-.1a9.4 9.4 0 0 1-1.8-1.8l-.4-1-.5-.7-.3-.7-.5-.5c-.2 0-.5-.3-.8-.3l-1.4-.2c-.3 0-.5-.2-.5-.3l-.6-.5s-.3-.6-.6-.6H62l-1.1-.2 3-9 .1-.9.3-.3.2-.6.7-.7 1.2-.8c.6-.2.6 0 1-.7l.8-1.1a65 65 0 0 1 2.4-4.8l.5-1.3.7-1.1c.3-.5 0-.3.5-.8.3-.4.8-.9.8-1.3s.4-1.4.5-1.6l.4-.9.5-.7.4-.7s.2-.5.4-.5c.3-.1.6-.2.8.2l.7.7c.4.3.4.5 1 .6.6 0 .7.2 1 0 .2-.3.2-.6.2-.7-.1-.1-.2-.6 0-.7.3-.1.4-.5.6-.2s.3.6.7.3l.6-.5s.6-.6.6-.8v-.7l-.2-.8c0-.2 0-.5-.3-.6-.3-.1-.4-.1-.5-.3-.2-.2-.3-.4 0-.7l1.5-3.3.3-.6.4-.6c1-.6.6-1.2 1-2.1.2-.8 1-1.6 1.3-2.3.2-.5.4-.5.7-.8.4-.3.3-.7.6-1 .5-.6 1.5.4 2.2.6.2.6 0 1 .8 1 .5.1.3.2.6 0 .4-.2.2-.5.7-.4.2 0 .2.5.4.6.3.2.7.2 1 .2.5 0 1.3-.4 1.6-.7.4-.4.3-1 .7-1.3.7-.4 1 .2 1.6.3l1.7-.2c.5-.2.7-.7 1.1-1h.6zm453 5.2c-.2 0-.9.7-.9.9l.2.4.2.6c0 .2.3.5 1.6 1.7a23 23 0 0 1 2 1.8l1 1a33.5 33.5 0 0 0 3.3 2.6l1 .8c.3.4 1 .8 1.3 1.1a86.6 86.6 0 0 1 3.8 3.1c.2 0 .9-.8 1-1.2.1-.2 0-.2-.6-.9-1.8-1.7-3-2.6-4.5-3.6-1-.7-1.2-.9-1.5-1.4a5 5 0 0 0-1.5-1.6 57 57 0 0 1-5.5-3.7l-.5-.8-.5-.8zm-298.9 1.2h.3c.4.1.6.6.5 1 .8.2.4.9.2 1.3l-.5 1.7c-.5.9-1.2 2-1 3.2 1.2.1.8-1.8 2-1.5.8.2 0 .8.1 1.2 0 1 .6.3 1 0 .2-.1 1-.3 1-.6.3-.5-.4-1 .2-1.3 1.2-.6 2 1 1 1.6-.3.7-1.3 3 .3 2.6.3-.4.2-1.1.5-1.4.4-.4 1-.3 1.3 0 1.2 1-.7 1.6-.3 2.6.7 1.6 1.7-.6 2.5-.3.6.2.3.8.7 1 .6.6 1-.2 1.2-.7.1-.7 0-2.4 1.2-1.4.1.5.4.8.3 1.4 0 .5-.3.9-.2 1.4.1.4.5 1 .9 1.2.7.2.9-.3 1.1-.7.4-.5.7-.7 1.2-.9.7-.2.8-.4 1.3-1 .2-.3.7-.8.5-1.4-.3-.5-1-.4-1.5-.4-.4 0-.7 0-.9-.3-.2-.5.3-.6.5-.9.2-.4.3-2.7.9-2 .2.5.4.8.7.6.4-.2.6-.2.8-.9.2-.6 0-.5.4-.9l.8-.7c.2-.1-.2 0 .4 0l1.3-.2c.5 0 .8-.3.8.4s-.3.8 0 1.4c.2.7-.3.2.2.7l.7.4c.4 0 .3-.3.5.3s.2.9.4 1.1l.2.6c.1.5.1.5-.3.7s-.4 0-.7.4c-.3.4-.3 0-.5.7-.3.7-.3.4-.3 1 0 .7-.5.4.1 1.1.6.8.8.7 1.2 1 .4.3 1.1.5 1 .6-.3.1-.9.2-1 1-.1.6-.3.6-.2 1 .1.5.7.5 0 .8-.7.4-.9.7-1.2.2-.4-.5-.5-1-.8-1-.3 0-.9-.7-1.1-.4-.3.4-.9.2-.6.6l.7 1c.1.2-.4.8-.7 1-.5.1-.8-.2-1.3-.1-.1.8-.6-.1-.5-.6 0-.6.3-.8.3-1.5-.3 0-.5 0-.5.3-.9.3-.9-1-1.7-.7l-.1.7-.5.3c-.3.8.5.3.9.4v1c.3.4.7.4.8.8.3.5 0 .4-.3.8-.1.3 0 .6-.3.9l-.6-.5-.8.2c-1 0-.8-.6-.8-1.3-.7-.2-.7.6-.7 1 0 .7 0 1-.2 1.5 0 .4-.1 1.4-.4 1.5-.5.1-.9-.6-1-1-1.2-.6-.6 2.4-2 1.4-1.2-.9.6-2 1-2.5.4-.4.4-.7.5-1.2l.1-.6.5-.6c.2-.4.8-1.8.3-2.2-1-.6-1.9 1.6-2.2 2 .2.4 1 1.1.5 1.6-.8.5-1-1-1.8-.7-.5.1-1 1.1-1 1.5.1.7 1.3 1 1.1 1.8-.2 0-.8.2-1 0-.4 0-.3-.3-.6-.5-.2-.2-.6-.5-1-.3-.2.3.1.6.2 1 .2.4.3 1.8-.7 1.3-.5-.3-.4-1.4-1.3-1.1-.7.7-.6.9-.2 1.8.1.4-.3 1.7-1 1.3-.3-.2-.1-2-1.1-1.2l-.4.9c-.3.9.3 1.3.2 2.2-.7.6-1.6.8-1.8-1.3-.3.3-.1 1.1-.7 1.2-.3 0-.4-.2-.6-.3l-.6-.2c-.3 0-.2.4-.6.2-.3 0-.3-.4-.4-.5-.4-.3-1.2-.5-1.7-.4-.5.1-.6.8-1.3.7-.7-.2-1.1-.8-.7-1.1l2.9-1.6c.5-.3 1.7-.3 2.3-.5.5-.1 1-.2 1.2-.7-.5 0-1-.2-1.4 0-.1-.6-.1-1.1.5-1.4h1l.6-.5c.3-.2-1.2-.7-1.3-.7-.5-.2-1-.5-1-1.2 1-.1.4-.7 1-1.1.4-.5.7 0 1 .4.7 1 1 1.7 2.2 1.9.5 0 1.3 0 1.3-.7 0-.4-2.3-1.4-1.7-1.9.4-.3 2.7.6 3.2.5.4-.1.8-.6 1-1 .4-.5.5-1.4 1-1.6.2-.6.3-1 0-1.5l-.6-.4c-.5 0-.4.2-.7.3-.6.1-1 0-1.5.3-.6.4-.4.8-.8 1.2-.5.7-.5 0-.9-.3-.3-.3-1 0-1.2-.5-.3-.8 2.6-1.2.8-2.1-.2-.1-1.1-.4-1.3-.3-.4.1-.4.7-.9.8-1.2.4-.7-1.3-1.9-1.3-1.3 0-.9 1.2-1.1 2-.2.3-.5.5-.6 1 0 .4.3.8 0 1.3-.7 0-1.5.2-1.5 1.2 0 .8 1 1 1 1.8h-1c-.5 0-.3.5-.6.5-.7.2-.4-1-.8-1.4-.9-.3-1.1 5-2.8 3.7-.5-.4-.3-3.5-.8-3.8-.8-.3-1.4.1-1.8.6-.3.4-.3 1.4-.7 1.7-.6.5-.9-.4-1-.9-.4 0-.7-.9-.7-1.4.5-.2 1.1-.2 1.2-.8 0-.5-.7-.6-.8-1.2-.2-.6.6-1 1.1-.5.6.3.3 1 1.2 1 .6 0 1.1-.4 1.7-.6.7-.3 1.5-.3 2.3-.5.5-.1 1-.3 1.2-.8.3-.6 0-1 .7-1.4.1-.4.3-1.4.1-1.8-.2-.5-.8-.6-1.3-.7-.4-.2-1.1-.4-1.6-.2-.4.3-.7 1.5-1.4.6-.4-.5.3-1.5-.6-1.7 0-.5.3-1.2.5-1.6.4-.8.4-.5 1.2-.7.8-.2 1.5-1.7 2.4-.6.4.4.4.9 1 1.2.5.3 1.2.6 1.7.2 1-.7-.6-1.7-.9-2.4-.3-1 .4-.8.8-.2.4.1.5-.3.8-.6.5.8 1.7 0 2-.7.2-.5 0-1-.2-1.3l-.5-.4c-.1-.2 0-.6 0-.8.8-.4 1.7.5 1.7-1 0-.2-.2-.7.2-.7zm38.8 4.2v.4l-.2.5.1.6c.1.2.4.1.4.1l-.4.5-.2.4v1.3c0 .8.5.6 1 1 .4.2 1 .7 1.2 1.3.2.6.2.6.1.8 0 .2-.1.6-.4 1-.2.6-.2 1-.5 1.5-.2.5-.2.5-.9.4 0 0-.3 0-.8.3s-.2.1-1 .1c-.7 0-.1-.3-.1-.5s.2-.3 0-1c-.4-.6 0 0-.4.2l-.8.5-.7.6-1.7 1.3-.9.8c-.3.3-.2.8-.3 1.6 0 .8 0 1-.2 1.4-.1.4-.6.7-.6.7s-.5 0-.7-.2c-.2-.2 0 0 .7-.8.6-.9 0 0 0-.7.1-.7.3-.5 0-.7-.4-.2-.7 0-1.2-.5-.6-.5 0-.3 0-.7s.3-.3.6-.7l.5-.3c.5-.4 0-.4 0-.8 0-.5.4-.3 1.3-.5 1-.2 0 0 .6-.3.5-.4.5-.4.7-.8.2-.3.3-.8.2-1.7 0-.8-.3-.4-.7-.6l-1.3-.6c-.5-.3-.9-.2-1.6-.1-.7 0-.5-.1-1.3-.6-.9-.5-.4-.2-1-.7-.5-.5-.5-.3-1.5-.2-1 0-1 .2-1.9-.1-.8-.4-.2-.6-.5-1.5-.4-.8-.1-.4-.1-.9 0-.4.3-.3.5-.6s.4.4.6.4l.3.4.8.2c.3 0 .7 0 1.1-.2.5 0 .4-.4.8-.4.3-.1.3.3.7.6s.4 0 .8 0 .3-.2.3-.6c0-.5.1-.4.3-.7.1-.4.3-.4.5-.5l.5.1v1l.3.8c.1.3.4.6.8 1l1 1c.7.3 1 .3 1.8.1.8-.1.2-.4.3-1 .2-.8 0-.1.4-.4.4-.3.2.4.4.8.3.3.5 0 1-.6.7-.5 0-.3 0-1.4 0-1 .5-.5.5-1s.3-.2.4-.4l.4-.4zm120.1 25.6 3.2.4 2.4 1.6-.9 2.8c0 .3-1.5 1.1-2.1 1.3-.6.2-2.8.2-2.8.2l-2.2-2.3zm178.1 3c-.2.1-.2.3-.3.5 0 .3 0 .4.4.8l.6.5a39.1 39.1 0 0 1 3.7 3l.7.5c.4 0 .6 0 .8-.2.2-.1 0-.3-.6-.8a84.1 84.1 0 0 0-3.3-2.8l-1-.8c-.5-.4-.8-.6-1-.6zm-293 1.7c.6 0 1.5.3 1.6.7 0 .2-.5.7-.5.7s-.6.2-.6.4c.1.5.2.5.5.9 0 .1 0 .3.2.3 1.2-.3 1.6 1.4 1.5 1.6 0 0-1-.2-1.4 0 .2.4.9 1.5 1.1.5.7-.1 1.2 1.5 1.8.2.1-.2 0-.4.2-.7.1-.3.5-.9 1-.8 0 .7 0 1.2.7 1.3.3 0 1.3 0 .8.6 0 .1-.6 0-.7.2-.2.2-.3.3-.2.6 0 .3.4 1.1.5 1.2.1.3-1.4 1.1-1.7 1.2h-1.4c-.5.2-.4.4-.4 1-1.4.5-.6-.6-1.1-1.3-.4-.6-2-.7-2.2 0l-.5.1s-.4 0-.7-.4c-.3-.3 0-.3-.8-.4-.8 0-.3-.2-.7-.6-.4-.4-.6 0-1.6-.2h-1c-.5 0-.4.3-1 .2-.4 0-.2-.1-.8 0s-1.1.4-2.3.8c-1.2.4-.6 1.2-.6 1.2l-.3 2.4-1 .8h-.6s-1.5 3.8-2.4 2.1c-.2-.2 1.6-4.8 1.4-4.8-1.2-.2-1.9-.8-2.6 0l-.2 1.6-1.3.4v-3.7l-2.5-.2.1-1.9c-.3-.9-.6-1.8-1.7-2.6 0 0 .4-1.2 1-.8 1.4.7 3.5 2.7 3.5 2.7l.8-2 .2-1.4h1.3l.4 2.8 2.3 2.4 2.2-1.2c.6-.2.6-.7.8-1.1.3-.6.4-.6 1-.5h.6c.3 0 .3-.2.6-.1.4 0 .5.6.9.7.5.3.8 0 1.3-.3.6-.3.5-.3.8-1 .5-.1.5.7.8 1 .1.1.3 0 .5.2.1.2.1.4.3.5.3.4 1 .4 1.5.4.6 0 .8-.3.8-1 0-1 .1-1.5-.7-2.2-.6-.6-1.8-.9-.9-2 .2.2.5.3.7.1 0-.3.3-.5.6-.6zm120.4 4.9c.6 0 .8.4 1 .6.3.2.2.8.2.8l-.2.7.7.2 1-.5c.3 0 .5.5.8.6.3.1.6.2 1 .1.4 0 .6.2.9.6.3.4.4 1 .4 1l.8.6c.2.3.1.4.1 1.2 0 .7.5 0 .5 0l.8-.1 1 .8c.4.4.4.6.8 1.4.4.7.3 1.2-.1 1.7s-1 .2-2.5 0c-1.4 0-3.6-1-4.1-1-.6-.2-1.5.7-2.3 1-.9.3-1.2-.1-1.9-.1-.6 0-3.8-1-4.5-1.5s-1.5-2.6-1.5-2.6-.1-.6 0-1c.3-.6-.6-.7-.9-.8l1.6-1.9c.6-.6.8-.3 2-.7 1.3-.5 3.3-1 4.1-1.1h.3zm-243 9.1-.4.2c-.3.1-.7 0-.9.3l-.7 1c-.1.3-.5.7-.4 1s.4 1 1.2.7l1.1-.5.6-.4.3-.1h.3l-.2.5.8.6.7.5c.3.2.9.2.5-.1s-1-1-1-1.3l-.2-.5c0-.2.2-.3-.1-.7-.3-.3-.7-.4-.7-.4s-.2 0-.3-.3c0-.3 0-.4-.3-.4h-.3zm1.2 3.2h-.1c-.2.1-1 .3-1.1.5-.2.2-.6.4-.6.7 0 .4-.3.3 0 .8.2.5 0 1 .7.8.6-.2 1.3-.1 1.7.1.4.3.7.5 1 1.1.4.6 1.1.3 1.2.2v-1.1c-.1-.6-.4-1.2-.8-1.6-.4-.3-1-.6-1.2-1-.2-.2-.6-.5-.8-.5zm2 4.4c-.4.2-.6.2-.6.5v2.1l-.2.5-.2-.1c-.4-.3-1-.3-1.2-.5l-.5-.4-.4-.4c-.5-.4-1.2-.5-1.6-.3-.5.2-.7.6-.8 1.3l-.5 1.2c-.3.6-.7.5-.4 1.2.3.6.4.7 1.3.4a6 6 0 0 1 2-.3c.3 0 .8.2 1 0 .3-.3.7-.4.8-.7l.4-1 .1-.2.3.1c.5.2.7.2 1 0 .4-.1.7-.1 1-.5s0-.7 0-.8l-.4-.5-.3-.7-.5-.5zm168 11.9c.1 3.3-.8 7.3 2.2 9.6 1-.4 1.7-1 2.6-1.4.2-.8 0-2 1.1-2.3a60 60 0 0 1 3.9-1.1c-.3 1.7-2 1.7-3.4 2.2-.4 2-2 3-3.6 4l-.6 2.7c.2.9 1 1.4 1.3 2.2.1 1.5.3 3 .2 4.4-.8 1-1.8 1.8-2 3.1 1 .2 2.3 0 3.4.4.3 1.4.2 3 1.3 4 1.3 1.4 3.3 2.2 5.2 1.4 2.9-1.4 4.5-4.4 7.2-6l.5-.6-1.2 1.7c-2 2.3-3 3.5-5.2 5.6-2.3 2-5.3 1.4-8 1.2-2 1-4.4.8-6.6.5 0 1-.2 2.1 0 3.1 1 5.6 3.9 10.5 3.9 10.5l2.6 3.7 2.5 2.2.9.4-3.2 2.7c-.8-1.8-3-3.3-5-5-1.2-.8-2.7-1.5-4.5-1.9 0 0-2.4-1.2-5.8-2 0 .8.2 1.6-.3 2.3-1.2 2-2.4 3.8-3.7 5.5l-1.9-1-.1-1.2-1.2-.3c0-2 .4-4 .7-6-1 .7-1.8 1.7-3 2-1.5.1-2.9-1.3-2.9-2.7-.2-.6 0-1.4-.8-1.6-1.3-.9-2.7.3-4.1.4-.9-.3-1.2-1.2-1.6-1.9-1.3 0-2.8-.1-3.9.8-1.8 1.8-4.6.6-6.4-.7l.4-2.2c-.8-.1-3.5.5-2.3-1.1 1-.2 2.1-.3 3.2-.3l.4 2.9c.8.3 1.6.7 2.5.9 1-.3 1.6-1.2 2.6-1.3 1.4-.3 2.7-.6 4.1-.7.8.4 1 1.2 1.4 1.8 1.8-.4 4-.7 5.4.6.9 1 1.6 2.2 2.7 3.1.8-1 1.3-2.4 2.6-2.8 3.8-.7 7.6.5 11.3.5 1 .2 1.3-.8 1.2-1.6-.3-3.2-1.1-6.4-.6-9.6.9-2.5 4-3.3 4.5-6.1-1.2-.4-3-1-2.7-2.7.7-.3 1.5-.2 2.2-.2.7-1 1.4-2 2.3-3l.1-2.6c-1.6-1.4-1.3-3.6-.7-5.4-1-1.5-2-3-2.7-4.7-1-.5-2.3-.8-2.4-2.1 1 .3 1.9.5 2.8.9 0-1.8-1-4.4 1.1-5.2zm-203.3 47.3c-.9 0-2 .7-1.3 1.5l1.4 2 .5.2v-3c0-.5-.3-.7-.6-.7zm136.6 30.9h-1c-.2.2-.4 0-.4.4 0 .5.4.5.8.5h.8c.2-.2.4-.1.4-.4 0-.4-.3-.5-.6-.5zm.2 12.3c-.1.3-.5 0-.4.3.2.4.2.7.5 1 .3.1.5 0 .8.2.2.3.4.4.8.4s.5 0 .4-.3-.2-.1-.4-.3c0-.2-.6-.6-.6-.6-.2-.1-.4 0-.6-.3-.1-.1-.3-.4-.5-.4zM75.6 289.5h-.3v.2l-.1.1H75l-.1.2v.1l.3.2v.2h1.2l.4-.1.4-.3v-.1l-.2-.2-.2-.2H76l-.1-.1h-.3zm138.6 1.7c-.3 0-.6 0-1 .2-.6.3-1.3.2-1.5 1.4-.2 1.2-.5.7-.2 2l.7 2.2c.2.7.1 1 .1 1.3l-2.2 1.3-1.1-3.5c-.2-.6-.5-.8-.8-.7-.4 0-.9.3-1.4.7-.8.5-1.6 1.8-1.6 1.8l-1.2 1.6c-1 1.3-.2.7.5 1.3.9.6 1.4 1 1.7 2.5l1.7 2.8c.2.3 2.2-2.8 2.4-2.5h.1l1-1.7c-.6-.5-1-1-1-1.3l-.2-.3 2.2-1.2.2.4c.4 1.4.4 1.1 1.8 2 1.4.8 1.5 1 3.6 1h1.6l-.4 1.5a7 7 0 0 0-2 .3c-1.3.4-2.5-.3-3.8-.9l-.8-.5-1 1.6v.2c-.1.4-.5.9-.9 1.3-.7 1-1.6 1.7-1.5 1.8 1.8 1.3 2.6 1.2 4.8 1.7 2.2.5 6.8 1 8.5.7 1.8-.4 2-.9 2.7-2.2.7-1.4-1.4-2.5-3-3.3-.7-.4-1.5-.6-2.3-.6l.4-1.5 1.7.5c1.6.6 1.2-.2 2.7 1.1 1.4 1.3 1.7.4 2.4 2.5.8 2.1.4 3.6 2.4 4 2 .3 1.2-.7 2-.6 1 .2 1.1 0 1.7.4.5.4.9 1 1.4.7.6-.2.7-.3.3-1-.4-.6-.6-.8-.8-1.4-.3-.5-.2-.9-.8-1-.5-.2-.8 0-.8-.6s1.3-.9 1.3-.9l-4.3-4.3-.5.3-.8-1 .2-.5-.6-.6-.6.3-.4-.8-.3-.8-.4-.3-.3.8s-.8.2-1.1-.6l-1.1-2-4.4-3.7a37 37 0 0 0-3.3-1.6c-.5-.2-1.1-.3-1.7-.3zm-19.7 3.7-1.5.3c-1 .4-.9 0-2.3.3-1.5.2-1 .6-2 1.4-1.1.9-1 .5-2 .8-.9.3-.7.3-.7 1.4 0 1 .2.7.9 1.7s.9.8 3 1.5c2.3.6 1.7 0 3.6 0 1.8 0 5.2-3 7.1-2.7.2 0 .5-.2.8 0l-.7-2c-.2-.1-.4-1.5-1.5-2-1.3-.4-1-.4-2.6-.6l-1.6-.1h-.5zm112 2.7h-.1c-.1 0-.3.1-.4.4-.2.7-.4 1-.3 1.9 0 .8.1 1.3.3 1.8.3.5.4.5.6 1.1.2.6.2.7.5 1 .3.5.4 1 1 1.2l.8.4c.6.2 0 .2 1 .7.9.5 1 .8 1.4.5.4-.3.6-.8.6-1.4l-.4-2c0-.3-.6-1.2-.8-1.5l-.6-1.2c-.2-.3-.7-.3-.9-.7l-.4-.9c0-.2-.2-.5-.6-.5-.3 0-.8-.3-.8-.3l-.4-.4-.4-.1h-.1zm11.8 3.3-.1.1c-.1.3-.3.4.2.7l1 .2c.3 0 .4.2.5.2.2 0 .6.1.5.4-.1.3-.4 0-.5.4 0 .4-.1.3.1.5.3.2.4.4.6.3.2-.2.2-.4.2-.5s0-.5.2-.3l1.6 1.2s.2.1 0 .4c-.2.4-.2.7-.6 1.2-.5.6-.5.6-1.2 1-.7.5-.9.5-1 .9 0 .3-.3.4 0 .6.5.1.7.3 1.1 0 .5-.5.3-.6.6-1s.1-.4.5-.6l.1-.2.3-.1c.7-.3.6-.2.9-.6l.4-.7v-.6c0-.2-.3-.5-.3-.5h-.5l-1.4-1s.1-.2 0-.5-.6-.7-.6-.7l-1-.5-1-.2-.5-.1h-.1zm13.5.5h-.6l-2.8.4-2.7.3c-.2 0-.4.2-.5.5 0 .3.2.5.3.6l.3.4c.1.2 0 .3-.2.5 0 .2-.6.1-.6.1l-.8.1c-.2.1-.3.3-.3.5l-.1 1c0 .3 0 .5.4.7.3.2.7 0 1 0l1 .1c.2 0 .2.7.2 1 0 .2.2.5.1.7 0 .1-.2.3-.6.5-.3 0-.2-.2-.5-.5s-.3-.3-.5-.3-.3.2-.5.3c-.1.2-.2.2-.2.6s.8.6 1.1.9c.3.2.7 1 .7 1l.2 1c0 .4.3.4.6.8l.4 1c.2.4.8 1 1 1.2l1.5 1.5c.5.4 2 1.7 2.7 2 .6.3.9 0 1.2-.5.2-.5.8-1.1 1.2-1.8.4-.6 0-.8-.5-1.3s-.4-.4-.7-1c-.3-.5-1.5-1.3-1.9-1.9-.4-.5-.6-1-.7-1.4l-.2-1.6c-.2-.8-.3-.3-.6-.4h-.9c-.3 0-.5-.1-.8-.3s-.5-1-.5-1.4l.1-.7c0-.3.2-.5.4-.7.3-.3.4 0 1 .2.6.1.5 0 1.2-.3.7-.2.9-.4 1.6-1s.8-.9 1-2c0-.7-.8-.8-1.5-.8zm-135.6 4.8a1 1 0 0 0-.5.1c-.4.3-1.3.3-.7 1.3.6 1 1 .5 1.4 1.8.4 1.4-.7 2 .4 2.9 1.2.9 1 1.8 2.3 1 1.3-.7 1-1.5 1-1.5s-1.1-.3-1.1-1c0-.8-.6-1 0-1.4.5-.3.8-.1.7-1l-.5-1.7-1.4-.2a5 5 0 0 0-1.6-.3zm5.8 2.3s-.8.7-.3 1.3c.4.6.4.2.8 1.2s.9 1.4 1.4 1.4h.6l.7-1.5c.4-.8-2.1-2-2.1-2zm132.3.5c-.4 0-1 .2-1 .6 0 .4.7 1.3 1 1.7.5.4 2 1.8 2.2 2.2l.8 1c.3.2.6.4 1 .1.3-.3.8-.6.8-1 0-.5-.6-1.3-.6-1.6 0-.4-.1-.8-.4-1.2-.3-.4-.5-.7-1.1-1l-1.3-.7h-1.4zm-16.7 2.6-.6.2c-.4.3-1.3.6-1.5.9-.3.3-.5.6-.2 1l1.5 1a27 27 0 0 1 2.7 3.2l2.7 3.5c.5.6 1 .6 1.5 1.3.5.7.8 1 1.4 1s.7 0 .7-.7-.4-1.6-.4-2.7-.3-1.3-.1-2c.2-.6.1-1.8 0-2.2 0-.4 0-.8-.4-1.2-.3-.3-1-.4-1.2-.7l-1.7-.8c-.2 0-.3-.3-.8-.3s-.5 0-1-.2l-.9-.6-1-.6a2 2 0 0 0-.7-.1zm-172.2 7.8-.1.2-.2.5.5 1 1 .1v-.6l-.4-.5c-.3-.3-.6-.8-.8-.7zm64.5 0c-.2.1 0 1 0 1.4-.1.5 0 .7.2 1.4l.3 1.1.2 1v2.3l-.7 2c-.2.6-.5.5-.7 1.1-.3.6-.3.6-.3 1.4 0 .8-.2 2 0 3.1.4 1.2.3.7.3 1.3l.6 2 .5 2.4 1.3 1.8.5 1.8s-.8.6-.8 1.2c0 .3 0 2 .2 2.5.5.8 1.4.2 1.5.6a6 6 0 0 0 2.2 2.7c.7.4 1 .4 1.3.7.2.2.5.3 1 1.2a6 6 0 0 0 2.3 1.9c.7.4.8.7 2.6.7 1.9.1 3.6-1.6 4.4-2 .8-.3.9-.6 2.3-2.1 1.4-1.6 1.2-1.5 1.2-3 0-1.6.3-2.5.8-3.4.5-1 2-1.2 3.4-1.7 3.2-1.1 3.5-3.2 3.9-6v-4.3c-.2-.6-.3-1.7-.4-2.5-.2-.8-1.8-1.5-2.3-2.1-.6-.7-1.5-.5-2.4-.6s-1.8 0-3.2.3-1 .3-1.8.9l-3.6 2c-.8.5-1.2.2-2.3.2-1.1-.1-2.3-1-2.3-1l-1.5-.4s-1.4-.8-1.7-1.3c-.3-.6-2-.3-2.3-.5-.3-.2-.5-1-.5-1l-1-1.4c0-.6-.1-.6-.6-1-.5-.6-.3-.6-.7-.6s-.7-1.2-.7-1.2l-.1-.8-.4-1.6c0-.4-.4-.5-.7-.5zm92 .3-.3.3-.7 1.1.3 1c.2.3.3.6.8.6.4 0 1.1-.7 1.1-.7l.5-.6-1-1.4s-.3-.3-.5-.3h-.1zm3.2 2-.3.6-.8 1s-.5.1-.6.8c0 .6-.4 0 0 .6.3.7.5 1.4 1.1 1.1.7-.3 1-.4 1.1-.8.2-.4.1-.5.6-.7.4-.3.7-.8.6-1 0-.3-.3-.4-.4-.7-.2-.3-1.2-.8-1.2-.8h-.1zm-60.5.3s-.1 0 0 .1v.5l.6.5.7-.2-.1-.5-.5-.2-.7-.2zm-79.8 2.3h-.8c-1.2.2-1.4.6-2.6 1-1 .3-1 .7-2.3.7-1.2 0-3.5.7-3.5.7-.7 0-1.7.3-2 .8a25.1 25.1 0 0 1-2 3c-.2.3-.8.9-1.5 1.2l-1.6.9c-1 .4-1.8.5-2.1 1.4-.4.8-1 1.2 0 1.7 1.2.4 2.9.8 4.8.9 2 .1 2 .3 3.3.7 1.2.3.7.4 2.6.4 2 0 3 .1 4-.3 1.2-.5 1.7-.6 2.9-.6s1.7-.5 2.9 0c1.2.7 1.1 1 2.4 1 1.3 0 2.3 0 3.3-.3 1-.2.7-.3 2-.3l2.9-.2c1.3-.1 1.5-1 1-1.6-.3-.6-1.6-2-2-2.6-.3-.4-1.4-1.5-1.5-1.8l-.4-1.8c-.2-1 .2-1.6-1.2-2-1.3-.5-3-1.3-4.3-1.7s-1.8-.4-2.3-.8c-.4-.3-1.1-.5-2-.4zm87 2.8c-.4 0-.5.3-.6.6-.3.6-.1 1.4 0 1.9.3.4 1.3 3.7 1.6 4.6.3.8.6 1.7 2.4 2.8 1.7 1.2 1.8 1 2.8 1.7 1 .7 1.6 1.1 2.5 1.4 1 .3 1.2 1 2.2.7.9-.5 1.4-.4 1-1.3-.2-1-.6-1.5-1.4-2-.7-.3-1.6-1.5-2.2-2.2-.6-.7-.7-.8-1-1.5-.3-.7-.6-1.8-1-2.2-.5-.4-.9-.8-1.7-1.2l-2-1.3-1.3-1.4c-.6-.4-1-.6-1.3-.6zm-32.3 11.2c.8 0 1.7.7 3 1.7l7 5.7v3.3l-2.2 2.9-3.8 1.8h-3l-3.5-3.6-3.6-3.2-.9-1 .6-2.2 3.5-3.5c1.2-1.3 2-1.9 3-1.9zm-48 12.4h-.3l-1.5.2c-1.4.3-1.3.4-2 .9-.8.4-.9.3-1.3.8-.4.4-.5.6-.6 1.7 0 1.1-.9 1-1.4 1.5-.6.5-1 1-1.2 1h-3.6c0 .1-.5.4-.7 1-.2.7.3.4.6.8s.4.4.5 1.2l.2 1.3.5 1.7c0 .4.3.9.4 1.5 0 .7 0 .7.2 1.1s.5 0 1-.2c.3-.2.6-.2 1.2-.7.5-.5.6-.4 1.3-.8l1.2-1c.6-.4 1.2-.1 2.2-.3 1-.2 1-.3 1.5-.6.6-.3 1-.2 1.4-.3.5 0 .9 0 1.4-.3s.6-.9.6-1.2l.8-2.1c0-.4 1.3-.1 1.8-.1s.6-.4.6-.6V356c0-.8 0-.7-.2-1.1l-.8-1.6c-.4-.6-1-1-1.4-1.5-.5-.6-1-.6-1.7-1l-.7-.1zm13.2 1.5-.6.3a59.2 59.2 0 0 1-1.1 1.1l-.2.4c0 .3-.3.5-.5.5s-.4.2-.3.3c.1.2.1.5.8.5.6 0 .8-.2 1-.5.1-.3 0-.4.2-.7l.6-1s0 .2.3-.3c.2-.4 0-.5-.1-.6zm-7.2 18.2a5 5 0 0 0-1 .2c-1.3.3-1.2.6-2 1s-.8.6-1.3 1.3c-.6.8-.3 1 .2 1.8.5 1 1.2.3 1.6.5l1.5.8c.4.2.7.4.7 1.2 0 .8-.2 1.4-.2 1.4s.4.6 1 1c.5.3.7 1 1.4 1.8.6.8.6.8 1.3.5l1-.6c.4-.3.8.8 1.5 1 .7.3 1.1.4 2 .3 1 0 .6-.2 1.5-.9.8-.7.2-1.2 0-1.8v-1.7c0-.5.3-.7.4-1.6 0-.8.2-.2.6-.8l.9-.9c.5-.5.6-.7.5-1.4 0-.8-.3-.8-.7-1l-1.3-.4-2.2-.9c-.7-.3-.5-.1-1.3 0l-2 .6c-.6.2-.8-.2-1.5-.7s-.6-.4-1.3-.6l-1.3-.1zm12 12.8h-.1c-.1.4-.3.6-.1.9.2.2.3.1.3.5s-.4.7 0 .7.5-.1.6-.3v-.6c0-.2 0-.3-.2-.4a3 3 0 0 0-.3-.5l-.2-.3zm-1.2 6.2-.2.1-.5.6c0 .2-.2.1-.2.6v1.5l.2.2c.2 0 .4-.3.4-.3v-.5c0-.3-.2-.5 0-.7.3-.1.3-.2.3-.4v-.5l.2-.2c0-.1-.2-.4 0-.4h-.2z"/>
  <circle cx="264" cy="236" r="3.5" fill="#82d310" fill-opacity=".3" stroke="#82d310"/>
  <circle cx="246" cy="224" r="3.5" fill="#82d310" fill-opacity=".3" stroke="#82d310"/>
  <circle cx="264" cy="217" r="3.5" fill="#82d310" fill-opacity=".3" stroke="#82d310"/>
  <circle cx="318" cy="196" r="3.5" fill="#82d310" fill-opacity=".3" stroke="#82d310"/>
  <circle cx="332" cy="183" r="3.5" fill="#82d310" fill-opacity=".3" stroke="#82d310"/>
  <circle cx="350" cy="179" r="3.5" fill="#82d310" fill-opacity=".3" stroke="#82d310"/>
  <circle cx="368" cy="169" r="3.5" fill="#82d310" fill-opacity=".3" stroke="#82d310"/>
  <circle cx="347" cy="164" r="3.5" fill="#82d310" fill-opacity=".3" stroke="#82d310"/>
  <circle cx="326" cy="159" r="3.5" fill="#82d310" fill-opacity=".3" stroke="#82d310"/>
  <circle cx="304" cy="149" r="3.5" fill="#82d310" fill-opacity=".3" stroke="#82d310"/>
  <circle cx="279" cy="148" r="3.5" fill="#82d310" fill-opacity=".3" stroke="#82d310"/>
  <circle cx="256" cy="156" r="3.5" fill="#82d310" fill-opacity=".3" stroke="#82d310"/>
  <circle cx="233" cy="164" r="3.5" fill="#82d310" fill-opacity=".3" stroke="#82d310"/>
  <circle cx="202" cy="173" r="3.5" fill="#82d310" fill-opacity=".3" stroke="#82d310"/>
  <circle cx="166" cy="188" r="3.5" fill="#82d310" fill-opacity=".3" stroke="#82d310"/>
  <circle cx="155" cy="195" r="3.5" fill="#82d310" fill-opacity=".3" stroke="#82d310"/>
  <circle cx="144" cy="202" r="3.5" fill="#82d310" fill-opacity=".3" stroke="#82d310"/>
  <circle cx="126" cy="198" r="3.5" fill="#82d310" fill-opacity=".3" stroke="#82d310"/>
  <circle cx="108" cy="194" r="3.5" fill="#82d310" fill-opacity=".3" stroke="#82d310"/>
  <circle cx="93" cy="192" r="3.5" fill="#82d310" fill-opacity=".3" stroke="#82d310"/>
  <circle cx="66" cy="187" r="3.5" fill="#82d310" fill-opacity=".3" stroke="#82d310"/>
  <circle cx="50" cy="214" r="3.5" fill="#82d310" fill-opacity=".3" stroke="#82d310"/>
  <circle cx="58" cy="228" r="3.5" fill="#82d310" fill-opacity=".3" stroke="#82d310"/>
  <circle cx="54" cy="242" r="3.5" fill="#82d310" fill-opacity=".3" stroke="#82d310"/>
  <circle cx="42" cy="252" r="3.5" fill="#82d310" fill-opacity=".3" stroke="#82d310"/>
  <circle cx="30" cy="262" r="3.5" fill="#82d310" fill-opacity=".3" stroke="#82d310"/>
  <circle cx="82" cy="183" r="3.5" fill="#82d310" fill-opacity=".3" stroke="#82d310"/>
  <circle cx="134" cy="104" r="3.5" fill="#82d310" fill-opacity=".3" stroke="#82d310"/>
  <circle cx="158" cy="45" r="3.5" fill="#82d310" fill-opacity=".3" stroke="#82d310"/>
  <path fill="#82d310" fill-opacity=".3" d="M223 56a4 4 0 1 1-8 0 4 4 0 0 1 8 0zM233 66a4 4 0 1 1-8 0 4 4 0 0 1 8 0zM247 52a4 4 0 1 1-8 0 4 4 0 0 1 8 0zM253 36.5a4 4 0 1 1-8 0 4 4 0 0 1 8 0zM263 46.5a4 4 0 1 1-8 0 4 4 0 0 1 8 0zM273 56.5a4 4 0 1 1-8 0 4 4 0 0 1 8 0zM283 66.5a4 4 0 1 1-8 0 4 4 0 0 1 8 0zM211 122.5a4 4 0 1 1-8 0 4 4 0 0 1 8 0zM217 143a4 4 0 1 1-8 0 4 4 0 0 1 8 0zM227 153a4 4 0 1 1-8 0 4 4 0 0 1 8 0zM237 184a4 4 0 1 1-8 0 4 4 0 0 1 8 0zM243 198a4 4 0 1 1-8 0 4 4 0 0 1 8 0zM253 208a4 4 0 1 1-8 0 4 4 0 0 1 8 0zM271 198a4 4 0 1 1-8 0 4 4 0 0 1 8 0zM291 188a4 4 0 1 1-8 0 4 4 0 0 1 8 0zM309 184a4 4 0 1 1-8 0 4 4 0 0 1 8 0zM273 180a4 4 0 1 1-8 0 4 4 0 0 1 8 0zM254 185a4 4 0 1 1-8 0 4 4 0 0 1 8 0zM257 169.5a4 4 0 1 1-8 0 4 4 0 0 1 8 0zM242 151a4 4 0 1 1-8 0 4 4 0 0 1 8 0zM234 132a4 4 0 1 1-8 0 4 4 0 0 1 8 0zM227 110.5a4 4 0 1 1-8 0 4 4 0 0 1 8 0zM223 93.5a4 4 0 1 1-8 0 4 4 0 0 1 8 0zM241 81.5a4 4 0 1 1-8 0 4 4 0 0 1 8 0zM225 80.5a4 4 0 1 1-8 0 4 4 0 0 1 8 0z"/>
  <g stroke="#82d310">
    <use xlink:href="#reuse-0" stroke-width="2" mask="url(#a)"/>
    <circle cx="377" cy="200" r="3.5" fill="#82d310" fill-opacity=".3"/>
    <circle cx="395" cy="196" r="3.5" fill="#82d310" fill-opacity=".3"/>
    <circle cx="413" cy="192" r="3.5" fill="#82d310" fill-opacity=".3"/>
    <circle cx="431" cy="188" r="3.5" fill="#82d310" fill-opacity=".3"/>
    <circle cx="449" cy="184" r="3.5" fill="#82d310" fill-opacity=".3"/>
    <circle cx="474" cy="133" r="3.5" fill="#82d310" fill-opacity=".3"/>
    <circle cx="466" cy="149" r="3.5" fill="#82d310" fill-opacity=".3"/>
    <circle cx="458" cy="165" r="3.5" fill="#82d310" fill-opacity=".3"/>
    <circle cx="440" cy="168" r="3.5" fill="#82d310" fill-opacity=".3"/>
    <circle cx="423" cy="176" r="3.5" fill="#82d310" fill-opacity=".3"/>
    <circle cx="485" cy="176" r="3.5" fill="#82d310" fill-opacity=".3"/>
    <circle cx="503" cy="172" r="3.5" fill="#82d310" fill-opacity=".3"/>
    <circle cx="521" cy="168" r="3.5" fill="#82d310" fill-opacity=".3"/>
    <circle cx="238" cy="236" r="3.5" fill="#82d310" fill-opacity=".3"/>
    <circle cx="230" cy="217" r="3.5" fill="#82d310" fill-opacity=".3"/>
    <circle cx="222" cy="198" r="3.5" fill="#82d310" fill-opacity=".3"/>
    <circle cx="214" cy="179" r="3.5" fill="#82d310" fill-opacity=".3"/>
    <circle cx="206" cy="160" r="3.5" fill="#82d310" fill-opacity=".3"/>
    <circle cx="198" cy="141" r="3.5" fill="#82d310" fill-opacity=".3"/>
    <circle cx="182" cy="144" r="3.5" fill="#82d310" fill-opacity=".3"/>
    <circle cx="162" cy="148" r="3.5" fill="#82d310" fill-opacity=".3"/>
    <circle cx="154" cy="165" r="3.5" fill="#82d310" fill-opacity=".3"/>
    <circle cx="148" cy="183" r="3.5" fill="#82d310" fill-opacity=".3"/>
    <circle cx="130" cy="184" r="3.5" fill="#82d310" fill-opacity=".3"/>
    <circle cx="112" cy="183" r="3.5" fill="#82d310" fill-opacity=".3"/>
    <circle cx="101" cy="172" r="3.5" fill="#82d310" fill-opacity=".3"/>
    <circle cx="120" cy="172" r="3.5" fill="#82d310" fill-opacity=".3"/>
    <circle cx="142" cy="167" r="3.5" fill="#82d310" fill-opacity=".3"/>
    <circle cx="124" cy="161" r="3.5" fill="#82d310" fill-opacity=".3"/>
    <circle cx="106" cy="161" r="3.5" fill="#82d310" fill-opacity=".3"/>
    <circle cx="93" cy="155" r="3.5" fill="#82d310" fill-opacity=".3"/>
    <circle cx="109" cy="147" r="3.5" fill="#82d310" fill-opacity=".3"/>
    <circle cx="126" cy="147" r="3.5" fill="#82d310" fill-opacity=".3"/>
    <circle cx="143" cy="140" r="3.5" fill="#82d310" fill-opacity=".3"/>
    <circle cx="162" cy="133" r="3.5" fill="#82d310" fill-opacity=".3"/>
    <circle cx="138" cy="122" r="3.5" fill="#82d310" fill-opacity=".3"/>
    <circle cx="124" cy="122" r="3.5" fill="#82d310" fill-opacity=".3"/>
    <circle cx="130" cy="88" r="3.5" fill="#82d310" fill-opacity=".3"/>
    <circle cx="144" cy="68" r="3.5" fill="#82d310" fill-opacity=".3"/>
    <circle cx="163" cy="63" r="3.5" fill="#82d310" fill-opacity=".3"/>
    <circle cx="190" cy="122" r="3.5" fill="#82d310" fill-opacity=".3"/>
    <circle cx="295" cy="248" r="3.5" fill="#82d310" fill-opacity=".3"/>
    <circle cx="276" cy="248" r="3.5" fill="#82d310" fill-opacity=".3"/>
    <circle cx="300" cy="281" r="3.5" fill="#82d310" fill-opacity=".3"/>
    <circle cx="315" cy="250" r="3.5" fill="#82d310" fill-opacity=".3"/>
    <circle cx="339" cy="244" r="3.5" fill="#82d310" fill-opacity=".3"/>
    <circle cx="374" cy="220" r="3.5" fill="#82d310" fill-opacity=".3"/>
    <circle cx="396" cy="210" r="3.5" fill="#82d310" fill-opacity=".3"/>
    <circle cx="421" cy="203" r="3.5" fill="#82d310" fill-opacity=".3"/>
    <circle cx="472" cy="187" r="3.5" fill="#82d310" fill-opacity=".3"/>
    <circle cx="511" cy="188" r="3.5" fill="#82d310" fill-opacity=".3"/>
    <circle cx="486" cy="156" r="3.5" fill="#82d310" fill-opacity=".3"/>
    <circle cx="489" cy="121" r="3.5" fill="#82d310" fill-opacity=".3"/>
    <circle cx="351" cy="196" r="3.5" fill="#82d310" fill-opacity=".3"/>
    <circle cx="366" cy="188" r="3.5" fill="#82d310" fill-opacity=".3"/>
    <circle cx="381" cy="180" r="3.5" fill="#82d310" fill-opacity=".3"/>
    <circle cx="396" cy="172" r="3.5" fill="#82d310" fill-opacity=".3"/>
    <circle cx="406" cy="161" r="3.5" fill="#82d310" fill-opacity=".3"/>
    <circle cx="391" cy="157" r="3.5" fill="#82d310" fill-opacity=".3"/>
    <circle cx="376" cy="153" r="3.5" fill="#82d310" fill-opacity=".3"/>
    <circle cx="361" cy="149" r="3.5" fill="#82d310" fill-opacity=".3"/>
    <circle cx="346" cy="145" r="3.5" fill="#82d310" fill-opacity=".3"/>
    <circle cx="331" cy="141" r="3.5" fill="#82d310" fill-opacity=".3"/>
    <circle cx="316" cy="137" r="3.5" fill="#82d310" fill-opacity=".3"/>
    <circle cx="310" cy="125" r="3.5" fill="#82d310" fill-opacity=".3"/>
    <circle cx="296" cy="118" r="3.5" fill="#82d310" fill-opacity=".3"/>
    <circle cx="279" cy="117" r="3.5" fill="#82d310" fill-opacity=".3"/>
    <circle cx="264" cy="113" r="3.5" fill="#82d310" fill-opacity=".3"/>
    <circle cx="272" cy="103" r="3.5" fill="#82d310" fill-opacity=".3"/>
    <circle cx="279" cy="89" r="3.5" fill="#82d310" fill-opacity=".3"/>
    <circle cx="290" cy="103" r="3.5" fill="#82d310" fill-opacity=".3"/>
    <circle cx="306" cy="108" r="3.5" fill="#82d310" fill-opacity=".3"/>
    <circle cx="323" cy="113" r="3.5" fill="#82d310" fill-opacity=".3"/>
    <circle cx="336" cy="122" r="3.5" fill="#82d310" fill-opacity=".3"/>
    <circle cx="350" cy="129" r="3.5" fill="#82d310" fill-opacity=".3"/>
    <circle cx="370" cy="130" r="3.5" fill="#82d310" fill-opacity=".3"/>
    <circle cx="403" cy="141" r="3.5" fill="#82d310" fill-opacity=".3"/>
    <circle cx="427" cy="137" r="3.5" fill="#82d310" fill-opacity=".3"/>
    <circle cx="449" cy="130" r="3.5" fill="#82d310" fill-opacity=".3"/>
    <circle cx="430" cy="121" r="3.5" fill="#82d310" fill-opacity=".3"/>
    <circle cx="413" cy="122" r="3.5" fill="#82d310" fill-opacity=".3"/>
    <circle cx="421" cy="110" r="3.5" fill="#82d310" fill-opacity=".3"/>
    <circle cx="400" cy="93" r="3.5" fill="#82d310" fill-opacity=".3"/>
    <circle cx="389" cy="106" r="3.5" fill="#82d310" fill-opacity=".3"/>
    <circle cx="374" cy="112" r="3.5" fill="#82d310" fill-opacity=".3"/>
    <circle cx="381" cy="92" r="3.5" fill="#82d310" fill-opacity=".3"/>
    <circle cx="348" cy="110" r="3.5" fill="#82d310" fill-opacity=".3"/>
    <circle cx="352" cy="89" r="3.5" fill="#82d310" fill-opacity=".3"/>
    <circle cx="362" cy="81" r="3.5" fill="#82d310" fill-opacity=".3"/>
    <circle cx="344" cy="76" r="3.5" fill="#82d310" fill-opacity=".3"/>
    <circle cx="332" cy="96" r="3.5" fill="#82d310" fill-opacity=".3"/>
    <circle cx="336" cy="108" r="3.5" fill="#82d310" fill-opacity=".3"/>
    <circle cx="300" cy="72" r="3.5" fill="#82d310" fill-opacity=".3"/>
    <circle cx="318" cy="64" r="3.5" fill="#82d310" fill-opacity=".3"/>
    <circle cx="320" cy="48" r="3.5" fill="#82d310" fill-opacity=".3"/>
    <circle cx="304" cy="55" r="3.5" fill="#82d310" fill-opacity=".3"/>
    <circle cx="288" cy="53" r="3.5" fill="#82d310" fill-opacity=".3"/>
    <circle cx="302" cy="37" r="3.5" fill="#82d310" fill-opacity=".3"/>
    <circle cx="288" cy="25" r="3.5" fill="#82d310" fill-opacity=".3"/>
    <circle cx="276" cy="37" r="3.5" fill="#82d310" fill-opacity=".3"/>
    <circle cx="264" cy="25" r="3.5" fill="#82d310" fill-opacity=".3"/>
    <circle cx="426" cy="156" r="3.5" fill="#82d310" fill-opacity=".3"/>
    <circle cx="441" cy="148" r="3.5" fill="#82d310" fill-opacity=".3"/>
    <circle cx="456" cy="140" r="3.5" fill="#82d310" fill-opacity=".3"/>
  </g>
  <circle cx="291" cy="228" r="3.5" fill="#82d310" stroke="#5b9609"/>
  <circle cx="282" cy="210" r="3.5" fill="#82d310" stroke="#5b9609"/>
  <circle cx="300" cy="203" r="3.5" fill="#82d310" stroke="#5b9609"/>
  <circle cx="306" cy="220" r="3.5" fill="#82d310" stroke="#5b9609"/>
  <circle cx="321" cy="212" r="3.5" fill="#82d310" stroke="#5b9609"/>
  <path fill="#82d310" stroke="#5b9609" d="M334.5 222a3.5 3.5 0 1 1-7 0 3.5 3.5 0 0 1 7 0z"/>
  <circle cx="313" cy="240" r="3.5" fill="#82d310" stroke="#5b9609"/>
  <path fill="#82d310" stroke="#5b9609" d="M339.5 204a3.5 3.5 0 1 1-7 0 3.5 3.5 0 0 1 7 0z"/>
  <path fill="#fff" fill-opacity=".5" fill-rule="evenodd" d="M640 0H0v400h640zM371 175H250v81h121z" clip-rule="evenodd"/>
  <path stroke="#000" stroke-opacity=".1" d="M330.5 0v400M290.5 0v400M250.5 0v400M210.5 0v400M170.5 0v400M130.5 0v400M90.5 0v400M50.5 0v400M10.5 0v400M370.5 0v400M410.5 0v400M450.5 0v400M490.5 0v400M530.5 0v400M570.5 0v400M610.5 0v400M0 215.5h640M0 255.5h640M0 295.5h640M0 335.5h640M0 375.5h640M0 175.5h640M0 135.5h640M0 95.5h640M0 55.5h640M0 15.5h640"/>
  <path fill="red" d="M250 175v-1h-1v1zm121 0h1v-1h-1zm0 81v1h1v-1zm-121 0h-1v1h1zm-1-81v2.5h2V175zm0 7.6v5h2v-5zm0 10.1v5h2v-5zm0 10.1v5.1h2v-5zm0 10.2v5h2v-5zm0 10v5.2h2V223zm0 10.2v5h2v-5zm0 10.1v5.1h2v-5zm0 10.2v2.5h2v-2.5zm1 3.5h2.5v-2H250zm7.6 0h5v-2h-5zm10 0h5v-2h-5zm10.1 0h5v-2h-5zm10.1 0h5v-2h-5zm10.1 0h5v-2h-5zm10 0h5.1v-2h-5zm10.2 0h5v-2h-5zm10 0h5v-2h-5zm10.1 0h5v-2h-5zm10.1 0h5v-2h-5zm10.1 0h5v-2h-5zm10 0h2.6v-2h-2.5zm3.6-1v-2.5h-2v2.5zm0-7.6v-5h-2v5zm0-10.1v-5h-2v5zm0-10.1V223h-2v5zm0-10.2v-5h-2v5zm0-10v-5.2h-2v5.1zm0-10.2v-5h-2v5zm0-10.1v-5.1h-2v5zm0-10.2V175h-2v2.5zm-1-3.5h-2.5v2h2.5zm-7.6 0h-5v2h5zm-10 0h-5v2h5zm-10.1 0h-5v2h5zm-10.1 0h-5v2h5zm-10.1 0h-5v2h5zm-10 0H308v2h5zm-10.2 0h-5v2h5zm-10 0h-5v2h5zm-10.1 0h-5v2h5zm-10.1 0h-5v2h5zm-10.1 0h-5v2h5zm-10 0H250v2h2.5zm-2.6 1v-2h-2v2zm121 0h2v-2h-2zm0 81v2h2v-2zm-121 0h-2v2h2zm-2-81v2.5h4V175zm0 7.6v5h4v-5zm0 10.1v5h4v-5zm0 10.1v5.1h4v-5zm0 10.2v5h4v-5zm0 10v5.2h4V223zm0 10.2v5h4v-5zm0 10.1v5.1h4v-5zm0 10.2v2.5h4v-2.5zm2 4.5h2.5v-4H250zm7.6 0h5v-4h-5zm10 0h5v-4h-5zm10.1 0h5v-4h-5zm10.1 0h5v-4h-5zm10.1 0h5v-4h-5zm10 0h5.1v-4h-5zm10.2 0h5v-4h-5zm10 0h5v-4h-5zm10.1 0h5v-4h-5zm10.1 0h5v-4h-5zm10.1 0h5v-4h-5zm10 0h2.6v-4h-2.5zm4.6-2v-2.5h-4v2.5zm0-7.6v-5h-4v5zm0-10.1v-5h-4v5zm0-10.1V223h-4v5zm0-10.2v-5h-4v5zm0-10v-5.2h-4v5.1zm0-10.2v-5h-4v5zm0-10.1v-5.1h-4v5zm0-10.2V175h-4v2.5zm-2-4.5h-2.5v4h2.5zm-7.6 0h-5v4h5zm-10 0h-5v4h5zm-10.1 0h-5v4h5zm-10.1 0h-5v4h5zm-10.1 0h-5v4h5zm-10 0H308v4h5zm-10.2 0h-5v4h5zm-10 0h-5v4h5zm-10.1 0h-5v4h5zm-10.1 0h-5v4h5zm-10.1 0h-5v4h5zm-10 0H250v4h2.5z" mask="url(#b)"/>
  <rect width="72" height="39" x="276.5" y="201.5" stroke="red" stroke-width="3" rx="2.5"/>
  <rect width="219" height="140" x="401" y="240" fill="#eee" fill-opacity=".5" rx="14"/>
  <rect width="14" height="14" x="413" y="321" stroke="red" stroke-width="6" mask="url(#c)" rx="2"/>
  <path stroke="red" stroke-dasharray="3 3" stroke-width="3" d="M414.5 355.5h11v11h-11z"/>
  <path fill="#000" d="M442.4 331.5h-.1l-2.6-8.4c-.3-1-.9-1.5-1.7-1.5-1 0-1.6.5-1.6 1.4l.3 1.3 2.9 8.5c.5 1.6 1.3 2.3 2.7 2.3 1.4 0 2.2-.7 2.7-2.3l2.9-8.5.2-1.3c0-.9-.6-1.4-1.6-1.4-.8 0-1.3.4-1.6 1.5zm7.5-9.6c0 .9.7 1.5 1.7 1.5s1.7-.6 1.7-1.5-.7-1.5-1.7-1.5-1.7.6-1.7 1.5zm3.2 11.5v-7.2c0-1.1-.5-1.7-1.5-1.7s-1.6.6-1.6 1.7v7.2c0 1.1.6 1.7 1.6 1.7s1.5-.6 1.5-1.7zm2-3c0 3 2 4.9 5.2 4.9 1.3 0 2.5-.3 3.2-.9.6-.3 1-.8 1-1.4 0-.6-.5-1-1.1-1-.5 0-.7.1-1.2.4-.4.3-1 .5-1.7.5-1.4 0-2.2-.8-2.2-2v-.4h4.9c1 0 1.5-.5 1.5-1.7 0-2.5-2-4.5-4.7-4.5-3 0-5 2-5 5zm3.2-1.7c0-1.2.6-2 1.8-2 1 0 1.6.7 1.6 2zm9.3 4c.4 1.7 1.1 2.4 2.2 2.4 1.2 0 1.8-.6 2.2-2.3l1.2-4.9h.2l1.2 4.9c.4 1.7 1 2.3 2.2 2.3 1.1 0 1.8-.6 2.2-2.3l1.7-6.1.2-.8c0-.8-.7-1.4-1.6-1.4-.8 0-1.3.5-1.5 1.5l-1.1 6h-.2l-1.3-5.8c-.3-1.1-1-1.7-1.9-1.7-1 0-1.5.5-1.8 1.7l-1.4 5.8h-.1l-1-6c-.2-1-.7-1.5-1.6-1.5-.9 0-1.5.6-1.5 1.5v.7zm18.1 4.2v-3.5h.2c.4 1 1.5 1.7 2.9 1.7 2.4 0 3.8-1.8 3.8-4.7v-1.2c0-3-1.4-4.8-3.8-4.8-1.4 0-2.5.7-3 1.8h-.1v-.3c-.1-1-.7-1.4-1.6-1.4-1 0-1.5.6-1.5 1.7v10.7c0 1.1.5 1.7 1.5 1.7s1.6-.6 1.6-1.7zm0-6.6v-1c0-1.6.7-2.5 1.9-2.5 1.1 0 1.8 1 1.8 2.6v.8c0 1.6-.7 2.5-1.8 2.5-1.2 0-1.9-1-1.9-2.4zm13.4-6c-3 0-5 1.9-5 5v1c0 3.1 2 5 5 5s5-1.9 5-5v-1c0-3.1-2-5-5-5zm0 2.4c1 0 1.7 1 1.7 2.5v1.1c0 1.7-.6 2.6-1.7 2.6-1.2 0-1.8-1-1.8-2.6v-1c0-1.7.6-2.6 1.8-2.6zm9.9 6.7v-4c0-1.5.7-2.3 2.1-2.3.5 0 .8-.2 1-.4.3-.2.4-.5.4-1 0-.4 0-.7-.3-1-.3-.2-.6-.3-1-.3-1 0-1.8.6-2.2 1.7h-.1v-.2c0-1-.6-1.4-1.5-1.4-1 0-1.5.6-1.5 1.7v7.2c0 1 .5 1.7 1.5 1.7s1.6-.6 1.6-1.7zm6.1-1.2c0 2.1 1 3 3.2 3 .8 0 1.4-.1 1.8-.4.4-.3.6-.6.6-1 0-.6-.3-1-.8-1h-.7c-.7 0-1-.2-1-1V327h.8c.9 0 1.3-.5 1.3-1.2s-.4-1.2-1.3-1.2h-.8v-1.1c0-1.1-.5-1.7-1.5-1.7s-1.5.6-1.5 1.7v1.1h-.5c-.8 0-1.3.4-1.3 1.2s.5 1.2 1.3 1.2h.4zM441.4 269.1c1 0 1.6-.6 1.6-1.7v-9h2.5c.8 0 1.3-.6 1.3-1.4 0-.8-.5-1.3-1.3-1.3h-8.3c-.7 0-1.3.5-1.3 1.3s.6 1.3 1.3 1.3h2.5v9.1c0 1 .6 1.7 1.7 1.7zm9.2-1.7v-4c0-1.5.7-2.3 2.1-2.3.5 0 .8-.2 1-.4.3-.2.4-.5.4-1 0-.4 0-.7-.3-1-.3-.2-.6-.3-1-.3-1 0-1.8.6-2.2 1.7h-.1v-.2c0-1-.6-1.4-1.5-1.4-1 0-1.5.6-1.5 1.7v7.2c0 1 .5 1.7 1.5 1.7s1.6-.6 1.6-1.7zm4.3-3c0 3 2 4.9 5.2 4.9 1.4 0 2.5-.3 3.2-.9.6-.3 1-.8 1-1.4 0-.6-.5-1-1.1-1-.5 0-.7.1-1.2.4-.4.3-.9.5-1.6.5-1.4 0-2.3-.8-2.3-2v-.4h4.9c1.1 0 1.5-.5 1.5-1.7 0-2.5-2-4.5-4.7-4.5-3 0-4.9 2-4.9 5zm3.2-1.7c0-1.2.7-2 1.8-2 1 0 1.7.7 1.7 2zm7.9 1.7c0 3 2 4.9 5.2 4.9 1.3 0 2.4-.3 3.1-.9.6-.3 1-.8 1-1.4 0-.6-.5-1-1-1-.6 0-.8.1-1.3.4-.4.3-.9.5-1.6.5-1.4 0-2.2-.8-2.3-2v-.4h5c1 0 1.5-.5 1.5-1.7 0-2.5-2-4.5-4.8-4.5-2.9 0-4.8 2-4.8 5zm3.1-1.7c0-1.2.7-2 1.8-2 1 0 1.7.7 1.7 2zm7.9 4.2c0 .7.4 1.3 1.2 1.7.8.4 1.9.7 3 .7 3 0 4.7-1.4 4.7-3.5 0-1.6-1-2.6-2.8-3l-1.8-.3c-.8-.2-1.2-.5-1.2-1 0-.6.5-1 1.3-1 .5 0 1 .2 1.8.6.5.3.9.4 1.2.4.7 0 1.1-.4 1.1-1 0-.7-.4-1.2-1.3-1.6-.7-.4-1.6-.6-2.6-.6-2.7 0-4.5 1.4-4.5 3.4 0 1.6 1 2.6 3 3l1.4.3c1 .2 1.4.6 1.4 1 0 .7-.6 1-1.5 1-.7 0-1.3-.2-2.1-.7-.5-.3-.8-.5-1.2-.5-.7 0-1.1.5-1.1 1.1zm17.8.5v-4c0-1.5.7-2.3 2-2.3.5 0 1-.2 1.1-.4.3-.2.4-.5.4-1 0-.4-.1-.7-.4-1-.2-.2-.6-.3-1-.3-1 0-1.7.6-2 1.7h-.2v-.2c-.1-1-.6-1.4-1.5-1.4-1 0-1.6.6-1.6 1.7v7.2c0 1 .5 1.7 1.6 1.7 1 0 1.6-.6 1.6-1.7zm4.3-3c0 3 2 4.9 5.2 4.9 1.3 0 2.5-.3 3.2-.9.6-.3 1-.8 1-1.4 0-.6-.5-1-1.1-1-.5 0-.7.1-1.2.4-.4.3-.9.5-1.7.5-1.4 0-2.2-.8-2.2-2v-.4h4.9c1.1 0 1.5-.5 1.5-1.7 0-2.5-2-4.5-4.7-4.5-3 0-4.9 2-4.9 5zm3.2-1.7c0-1.2.7-2 1.8-2 1 0 1.7.7 1.7 2zm18 4.7V262c0-2.3-1.3-3.7-3.5-3.7-1.5 0-2.7.8-3 2h-.2v-.4c0-1-.6-1.5-1.5-1.5-1 0-1.6.6-1.6 1.6v7.3c0 1 .6 1.7 1.6 1.7s1.6-.6 1.6-1.7v-4.2c0-1.3.7-2.2 1.8-2.2 1 0 1.6.7 1.6 2v4.4c0 1 .6 1.7 1.6 1.7s1.5-.6 1.5-1.7zm8.6 0h.1v.2c.1 1 .7 1.5 1.6 1.5 1 0 1.5-.6 1.5-1.7v-10.8c0-1.1-.5-1.7-1.5-1.7s-1.6.6-1.6 1.7v3.5h-.2c-.3-1-1.5-1.7-3-1.7-2.3 0-3.7 1.8-3.7 4.7v1.3c0 3 1.4 4.7 3.8 4.7 1.4 0 2.6-.7 3-1.8zm-3.6-3.2v-.9c0-1.5.7-2.5 1.8-2.5s1.9 1 1.9 2.4v1c0 1.6-.7 2.5-1.9 2.5-1.1 0-1.8-1-1.8-2.5zm8.7.2c0 3 2 4.9 5.2 4.9 1.4 0 2.5-.3 3.2-.9.6-.3 1-.8 1-1.4 0-.6-.5-1-1.1-1-.5 0-.7.1-1.2.4-.4.3-.9.5-1.6.5-1.4 0-2.2-.8-2.3-2v-.4h4.9c1.1 0 1.5-.5 1.5-1.7 0-2.5-2-4.5-4.7-4.5-3 0-4.9 2-4.9 5zm3.2-1.7c0-1.2.7-2 1.8-2 1 0 1.7.7 1.7 2zm11.4 4.7v-4c0-1.5.7-2.3 2.1-2.3.5 0 .9-.2 1-.4.3-.2.5-.5.5-1 0-.4-.2-.7-.4-1-.3-.2-.6-.3-1-.3-1 0-1.8.6-2.1 1.7h-.2v-.2c0-1-.6-1.4-1.5-1.4-1 0-1.5.6-1.5 1.7v7.2c0 1 .5 1.7 1.5 1.7s1.6-.6 1.6-1.7zm4.4-3c0 3 2 4.9 5.2 4.9 1.3 0 2.4-.3 3.1-.9.6-.3 1-.8 1-1.4 0-.6-.4-1-1-1s-.8.1-1.2.4c-.4.3-1 .5-1.7.5-1.4 0-2.2-.8-2.2-2v-.4h4.8c1.2 0 1.6-.5 1.6-1.7 0-2.5-2-4.5-4.7-4.5-3 0-5 2-5 5zm3.2-1.7c0-1.2.6-2 1.7-2 1 0 1.7.7 1.7 2zm14.6 4.6h.2v.3c0 1 .6 1.5 1.5 1.5 1 0 1.6-.6 1.6-1.7v-10.8c0-1.1-.6-1.7-1.6-1.7s-1.5.6-1.5 1.7v3.5h-.2c-.4-1-1.5-1.7-3-1.7-2.3 0-3.8 1.8-3.8 4.7v1.3c0 3 1.5 4.7 3.8 4.7 1.5 0 2.7-.7 3-1.8zm-3.5-3v-1c0-1.5.6-2.5 1.8-2.5 1.1 0 1.9 1 1.9 2.4v1c0 1.6-.8 2.5-2 2.5s-1.7-1-1.7-2.5zM441.4 302.1c1 0 1.6-.6 1.6-1.7v-9h2.5c.8 0 1.3-.6 1.3-1.4 0-.8-.5-1.3-1.3-1.3h-8.3c-.7 0-1.3.5-1.3 1.3s.6 1.3 1.3 1.3h2.5v9.1c0 1 .6 1.7 1.7 1.7zm9.2-1.7v-4c0-1.5.7-2.3 2.1-2.3.5 0 .8-.2 1-.4.3-.2.4-.5.4-1 0-.4 0-.7-.3-1-.3-.2-.6-.3-1-.3-1 0-1.8.6-2.2 1.7h-.1v-.2c0-1-.6-1.4-1.5-1.4-1 0-1.5.6-1.5 1.7v7.2c0 1 .5 1.7 1.5 1.7s1.6-.6 1.6-1.7zm4.3-3c0 3 2 4.9 5.2 4.9 1.4 0 2.5-.3 3.2-.9.6-.3 1-.8 1-1.4 0-.6-.5-1-1.1-1-.5 0-.7.1-1.2.4-.4.3-.9.5-1.6.5-1.4 0-2.3-.8-2.3-2v-.4h4.9c1.1 0 1.5-.5 1.5-1.7 0-2.5-2-4.5-4.7-4.5-3 0-4.9 2-4.9 5zm3.2-1.7c0-1.2.7-2 1.8-2 1 0 1.7.7 1.7 2zm7.9 1.7c0 3 2 4.9 5.2 4.9 1.3 0 2.4-.3 3.1-.9.6-.3 1-.8 1-1.4 0-.6-.5-1-1-1-.6 0-.8.1-1.3.4-.4.3-.9.5-1.6.5-1.4 0-2.2-.8-2.3-2v-.4h5c1 0 1.5-.5 1.5-1.7 0-2.5-2-4.5-4.8-4.5-2.9 0-4.8 2-4.8 5zm3.1-1.7c0-1.2.7-2 1.8-2 1 0 1.7.7 1.7 2zm7.9 4.2c0 .7.4 1.3 1.2 1.7.8.4 1.9.7 3 .7 3 0 4.7-1.4 4.7-3.5 0-1.6-1-2.6-2.8-3l-1.8-.3c-.8-.2-1.2-.5-1.2-1 0-.6.5-1 1.3-1 .5 0 1 .2 1.8.6.5.3.9.4 1.2.4.7 0 1.1-.4 1.1-1 0-.7-.4-1.2-1.3-1.6-.7-.4-1.6-.6-2.6-.6-2.7 0-4.5 1.4-4.5 3.4 0 1.6 1 2.6 3 3l1.4.3c1 .2 1.4.6 1.4 1 0 .7-.6 1-1.5 1-.7 0-1.3-.2-2.1-.7-.5-.3-.8-.5-1.2-.5-.7 0-1.1.5-1.1 1.1zm24.3.5V295c0-2.3-1.2-3.7-3.4-3.7-1.5 0-2.7.8-3 2h-.2v-.4c-.1-1-.6-1.5-1.6-1.5s-1.5.6-1.5 1.6v7.3c0 1 .6 1.7 1.6 1.7s1.5-.6 1.5-1.7v-4.2c0-1.3.8-2.2 1.9-2.2 1 0 1.6.7 1.6 2v4.4c0 1 .5 1.7 1.6 1.7 1 0 1.5-.6 1.5-1.7zm6.8-9c-3 0-5 1.8-5 4.9v1c0 3.1 2 5 5 5s5-1.9 5-5v-1c0-3.1-2-5-5-5zm0 2.3c1 0 1.7 1 1.7 2.5v1.1c0 1.7-.6 2.6-1.7 2.6-1.2 0-1.8-1-1.8-2.6v-1c0-1.7.6-2.6 1.8-2.6zm7.6 5.5c0 2.1 1 3 3.2 3 .8 0 1.4-.1 1.8-.4.4-.3.6-.6.6-1 0-.6-.4-1-.8-1h-.8c-.6 0-.9-.2-.9-1V294h.8c.9 0 1.3-.5 1.3-1.2s-.4-1.2-1.3-1.2h-.8v-1.1c0-1.1-.5-1.7-1.5-1.7s-1.5.6-1.5 1.7v1.1h-.5c-.8 0-1.3.4-1.3 1.2s.5 1.2 1.3 1.2h.4zm14 1.2v-4c0-1.5.7-2.3 2.2-2.3.4 0 .8-.2 1-.4.3-.2.4-.5.4-1 0-.4-.1-.7-.4-1-.2-.2-.6-.3-1-.3-1 0-1.7.6-2.1 1.7h-.1v-.2c-.1-1-.6-1.4-1.5-1.4-1 0-1.6.6-1.6 1.7v7.2c0 1 .5 1.7 1.5 1.7s1.7-.6 1.7-1.7zm4.4-3c0 3 2 4.9 5.2 4.9 1.3 0 2.5-.3 3.2-.9.6-.3 1-.8 1-1.4 0-.6-.5-1-1.1-1-.5 0-.7.1-1.2.4-.4.3-1 .5-1.7.5-1.4 0-2.2-.8-2.2-2v-.4h4.9c1 0 1.5-.5 1.5-1.7 0-2.5-2-4.5-4.7-4.5-3 0-4.9 2-4.9 5zm3.2-1.7c0-1.2.7-2 1.8-2 1 0 1.6.7 1.6 2zm18 4.7V295c0-2.3-1.3-3.7-3.5-3.7-1.5 0-2.7.8-3 2h-.2v-.4c0-1-.6-1.5-1.6-1.5-.9 0-1.5.6-1.5 1.6v7.3c0 1 .6 1.7 1.6 1.7s1.5-.6 1.5-1.7v-4.2c0-1.3.8-2.2 1.9-2.2 1 0 1.6.7 1.6 2v4.4c0 1 .5 1.7 1.6 1.7 1 0 1.5-.6 1.5-1.7zm8.6 0h.1v.2c0 1 .7 1.5 1.6 1.5 1 0 1.5-.6 1.5-1.7v-10.8c0-1.1-.5-1.7-1.6-1.7-1 0-1.5.6-1.5 1.7v3.5h-.2c-.4-1-1.5-1.7-3-1.7-2.3 0-3.8 1.8-3.8 4.7v1.3c0 3 1.5 4.7 3.9 4.7 1.4 0 2.6-.7 3-1.8zm-3.6-3.2v-.9c0-1.5.7-2.5 1.8-2.5s1.9 1 1.9 2.4v1c0 1.6-.7 2.5-1.9 2.5-1.1 0-1.8-1-1.8-2.5zm8.7.2c0 3 2 4.9 5.2 4.9 1.3 0 2.5-.3 3.2-.9.6-.3 1-.8 1-1.4 0-.6-.5-1-1.1-1-.5 0-.7.1-1.2.4-.4.3-.9.5-1.7.5-1.3 0-2.2-.8-2.2-2v-.4h4.9c1.1 0 1.5-.5 1.5-1.7 0-2.5-2-4.5-4.7-4.5-3 0-4.9 2-4.9 5zm3.2-1.7c0-1.2.7-2 1.8-2 1 0 1.7.7 1.7 2zm11.4 4.7v-4c0-1.5.7-2.3 2.1-2.3.5 0 .8-.2 1-.4.3-.2.5-.5.5-1 0-.4-.2-.7-.4-1-.3-.2-.6-.3-1-.3-1 0-1.8.6-2.2 1.7h-.1v-.2c0-1-.6-1.4-1.5-1.4-1 0-1.5.6-1.5 1.7v7.2c0 1 .5 1.7 1.5 1.7s1.6-.6 1.6-1.7zm4.3-3c0 3 2 4.9 5.2 4.9 1.4 0 2.5-.3 3.2-.9.6-.3 1-.8 1-1.4 0-.6-.5-1-1-1-.6 0-.8.1-1.3.4-.4.3-.9.5-1.6.5-1.4 0-2.2-.8-2.3-2v-.4h5c1 0 1.5-.5 1.5-1.7 0-2.5-2-4.5-4.8-4.5-2.9 0-4.9 2-4.9 5zm3.2-1.7c0-1.2.7-2 1.8-2 1 0 1.7.7 1.7 2zm14.7 4.6h.2v.3c0 1 .6 1.5 1.5 1.5 1 0 1.6-.6 1.6-1.7v-10.8c0-1.1-.6-1.7-1.6-1.7s-1.6.6-1.6 1.7v3.5h-.1c-.4-1-1.5-1.7-3-1.7-2.3 0-3.8 1.8-3.8 4.7v1.3c0 3 1.4 4.7 3.8 4.7 1.5 0 2.7-.7 3-1.8zm-3.6-3v-1c0-1.5.7-2.5 1.8-2.5 1.2 0 2 1 2 2.4v1c0 1.6-.8 2.5-2 2.5-1 0-1.8-1-1.8-2.5zM446 366.7c0-.8-.5-1.4-1.3-1.4h-4.2v-9c0-1-.6-1.7-1.6-1.7s-1.6.6-1.6 1.7v9.9c0 1.2.7 1.8 1.9 1.8h5.5c.8 0 1.4-.6 1.4-1.3zm5.8-9.4c-3 0-5 1.9-5 5v1c0 3.1 2 5 5 5s5-1.9 5-5v-1c0-3.1-2-5-5-5zm0 2.4c1.1 0 1.8 1 1.8 2.5v1.1c0 1.7-.7 2.6-1.8 2.6s-1.8-1-1.8-2.6v-1c0-1.7.7-2.6 1.8-2.6zm12.5 7h.1v.2c.1.8.7 1.2 1.5 1.2 1 0 1.5-.6 1.5-1.7v-5.3c0-2.3-1.6-3.7-4.5-3.7-1.2 0-2.1.2-2.8.6-1 .4-1.4 1-1.4 1.7 0 .6.4 1 1 1a2 2 0 0 0 1.2-.3 3 3 0 0 1 1.8-.7c1 0 1.6.5 1.6 1.4v.7H462c-2.4 0-3.9 1.2-3.9 3.2 0 1.8 1.4 3.1 3.4 3.1 1.3 0 2.3-.5 2.8-1.4zm-3.1-2c0-.7.6-1.1 1.5-1.1h1.6v1c0 .8-.8 1.4-1.7 1.4-.8 0-1.4-.5-1.4-1.3zm14.7 1.6h.2v.3c0 1 .6 1.5 1.5 1.5 1 0 1.6-.6 1.6-1.7v-10.8c0-1.1-.6-1.7-1.6-1.7s-1.5.6-1.5 1.7v3.5h-.2c-.4-1-1.5-1.7-3-1.7-2.3 0-3.8 1.8-3.8 4.7v1.3c0 3 1.5 4.7 3.9 4.7 1.4 0 2.6-.7 3-1.8zm-3.5-3v-1c0-1.5.6-2.5 1.8-2.5 1.1 0 1.9 1 1.9 2.4v1c0 1.6-.7 2.5-1.9 2.5s-1.8-1-1.8-2.5zm8.7 0c0 3.1 2 5 5.2 5 1.3 0 2.5-.3 3.2-.9.6-.3 1-.8 1-1.4 0-.6-.5-1-1.1-1-.5 0-.7.1-1.2.4-.4.3-1 .5-1.7.5-1.4 0-2.2-.8-2.2-2v-.4h4.9c1.1 0 1.5-.5 1.5-1.7 0-2.6-2-4.5-4.7-4.5-3 0-4.9 2-4.9 5zm3.2-1.6c0-1.2.7-2 1.8-2 1 0 1.7.7 1.7 2zm14.7 4.6h.1v.3c.1 1 .7 1.5 1.6 1.5 1 0 1.5-.6 1.5-1.7v-10.8c0-1.1-.5-1.7-1.5-1.7s-1.6.6-1.6 1.7v3.5h-.2c-.4-1-1.5-1.7-3-1.7-2.3 0-3.7 1.8-3.7 4.7v1.3c0 3 1.4 4.7 3.8 4.7 1.4 0 2.6-.7 3-1.8zm-3.6-3v-1c0-1.5.7-2.5 1.8-2.5s1.9 1 1.9 2.4v1c0 1.6-.7 2.5-1.9 2.5-1.1 0-1.8-1-1.8-2.5zm13.9 1.9c0 2.1 1 3 3.2 3 .7 0 1.4-.1 1.8-.4.4-.3.6-.6.6-1 0-.6-.4-1-.9-1h-.7c-.6 0-.9-.2-.9-1V360h.8c.8 0 1.3-.5 1.3-1.2s-.5-1.2-1.3-1.2h-.8v-1.1c0-1.1-.5-1.7-1.5-1.7s-1.5.6-1.5 1.7v1.1h-.5c-.8 0-1.3.4-1.3 1.2s.5 1.2 1.3 1.2h.4zm7-10.3c0 .9.8 1.5 1.8 1.5s1.7-.6 1.7-1.5-.8-1.5-1.7-1.5c-1 0-1.7.6-1.7 1.5zm3.3 11.5v-7.2c0-1.1-.5-1.7-1.5-1.7s-1.6.6-1.6 1.7v7.2c0 1.1.6 1.7 1.6 1.7s1.5-.6 1.5-1.7zm4 1.7c1 0 1.6-.6 1.6-1.7v-10.8c0-1.1-.6-1.7-1.6-1.7s-1.5.6-1.5 1.7v10.8c0 1.1.6 1.7 1.5 1.7zm3.6-4.7c0 3 2 4.9 5.2 4.9 1.3 0 2.4-.3 3.1-.9.6-.3 1-.8 1-1.4 0-.6-.4-1-1-1s-.8.1-1.2.4c-.4.3-1 .5-1.7.5-1.4 0-2.2-.8-2.2-2v-.4h4.8c1.2 0 1.6-.5 1.6-1.7 0-2.5-2-4.5-4.7-4.5-3 0-5 2-5 5zm3.2-1.7c0-1.2.6-2 1.7-2 1 0 1.7.7 1.7 2zm7.8 4.2c0 .7.4 1.3 1.2 1.7.8.4 1.9.7 3 .7 3 0 4.7-1.4 4.7-3.5 0-1.6-.9-2.6-2.8-3l-1.8-.3c-.8-.2-1.2-.5-1.2-1 0-.6.5-1 1.3-1 .6 0 1 .2 1.8.6l1.2.4c.7 0 1.1-.4 1.1-1 0-.7-.4-1.2-1.3-1.6-.7-.4-1.6-.6-2.6-.6-2.7 0-4.5 1.4-4.5 3.4 0 1.6 1 2.6 3 3l1.4.3c1 .2 1.4.6 1.4 1 0 .7-.6 1-1.5 1-.7 0-1.3-.2-2.1-.7-.5-.3-.8-.5-1.2-.5-.7 0-1.1.5-1.1 1.1z"/>
  <circle cx="420" cy="262" r="5" fill="#82d310" stroke="#5b9609" stroke-width="2"/>
  <circle cx="420" cy="295" r="5" fill="#82d310" fill-opacity=".3" stroke="#82d310" stroke-width="2"/>
</svg>
